%TF.GenerationSoftware,KiCad,Pcbnew,7.0.11+dfsg-1build4*%
%TF.CreationDate,2024-10-19T09:54:37-03:00*%
%TF.ProjectId,Z5,5a352e6b-6963-4616-945f-706362585858,rev?*%
%TF.SameCoordinates,Original*%
%TF.FileFunction,Soldermask,Bot*%
%TF.FilePolarity,Negative*%
%FSLAX46Y46*%
G04 Gerber Fmt 4.6, Leading zero omitted, Abs format (unit mm)*
G04 Created by KiCad (PCBNEW 7.0.11+dfsg-1build4) date 2024-10-19 09:54:37*
%MOMM*%
%LPD*%
G01*
G04 APERTURE LIST*
%ADD10R,1.700000X1.700000*%
%ADD11O,1.700000X1.700000*%
%ADD12R,1.600000X1.600000*%
%ADD13C,1.600000*%
G04 APERTURE END LIST*
D10*
%TO.C,REF\u002A\u002A*%
X177800000Y-63500000D03*
D11*
X175260000Y-63500000D03*
X172720000Y-63500000D03*
X170180000Y-63500000D03*
X167640000Y-63500000D03*
X165100000Y-63500000D03*
X162560000Y-63500000D03*
X160020000Y-63500000D03*
X157480000Y-63500000D03*
X154940000Y-63500000D03*
X152400000Y-63500000D03*
X149860000Y-63500000D03*
X147320000Y-63500000D03*
X144780000Y-63500000D03*
X142240000Y-63500000D03*
X139700000Y-63500000D03*
X137160000Y-63500000D03*
X134620000Y-63500000D03*
X132080000Y-63500000D03*
X129540000Y-63500000D03*
X127000000Y-63500000D03*
X124460000Y-63500000D03*
X121920000Y-63500000D03*
X119380000Y-63500000D03*
X116840000Y-63500000D03*
X114300000Y-63500000D03*
X111760000Y-63500000D03*
X109220000Y-63500000D03*
X106680000Y-63500000D03*
X104140000Y-63500000D03*
X101600000Y-63500000D03*
X99060000Y-63500000D03*
X96520000Y-63500000D03*
X93980000Y-63500000D03*
X91440000Y-63500000D03*
X88900000Y-63500000D03*
%TD*%
D10*
%TO.C,*%
X162560000Y-109220000D03*
%TD*%
%TO.C,REF\u002A\u002A*%
X177800000Y-55880000D03*
D11*
X175260000Y-55880000D03*
X172720000Y-55880000D03*
X170180000Y-55880000D03*
X167640000Y-55880000D03*
X165100000Y-55880000D03*
X162560000Y-55880000D03*
X160020000Y-55880000D03*
X157480000Y-55880000D03*
X154940000Y-55880000D03*
X152400000Y-55880000D03*
X149860000Y-55880000D03*
X147320000Y-55880000D03*
X144780000Y-55880000D03*
X142240000Y-55880000D03*
X139700000Y-55880000D03*
X137160000Y-55880000D03*
X134620000Y-55880000D03*
X132080000Y-55880000D03*
X129540000Y-55880000D03*
X127000000Y-55880000D03*
X124460000Y-55880000D03*
X121920000Y-55880000D03*
X119380000Y-55880000D03*
X116840000Y-55880000D03*
X114300000Y-55880000D03*
X111760000Y-55880000D03*
X109220000Y-55880000D03*
X106680000Y-55880000D03*
X104140000Y-55880000D03*
X101600000Y-55880000D03*
X99060000Y-55880000D03*
X96520000Y-55880000D03*
X93980000Y-55880000D03*
X91440000Y-55880000D03*
X88900000Y-55880000D03*
%TD*%
D10*
%TO.C,REF\u002A\u002A*%
X121920000Y-58420000D03*
%TD*%
%TO.C,*%
X162560000Y-134620000D03*
%TD*%
%TO.C,REF\u002A\u002A*%
X177800000Y-68580000D03*
D11*
X175260000Y-68580000D03*
X172720000Y-68580000D03*
X170180000Y-68580000D03*
X167640000Y-68580000D03*
X165100000Y-68580000D03*
X162560000Y-68580000D03*
X160020000Y-68580000D03*
X157480000Y-68580000D03*
X154940000Y-68580000D03*
X152400000Y-68580000D03*
X149860000Y-68580000D03*
X147320000Y-68580000D03*
X144780000Y-68580000D03*
X142240000Y-68580000D03*
X139700000Y-68580000D03*
X137160000Y-68580000D03*
X134620000Y-68580000D03*
X132080000Y-68580000D03*
X129540000Y-68580000D03*
X127000000Y-68580000D03*
X124460000Y-68580000D03*
X121920000Y-68580000D03*
X119380000Y-68580000D03*
X116840000Y-68580000D03*
X114300000Y-68580000D03*
X111760000Y-68580000D03*
X109220000Y-68580000D03*
X106680000Y-68580000D03*
X104140000Y-68580000D03*
X101600000Y-68580000D03*
X99060000Y-68580000D03*
X96520000Y-68580000D03*
X93980000Y-68580000D03*
X91440000Y-68580000D03*
X88900000Y-68580000D03*
%TD*%
D10*
%TO.C,REF\u002A\u002A*%
X177800000Y-60960000D03*
D11*
X175260000Y-60960000D03*
X172720000Y-60960000D03*
X170180000Y-60960000D03*
X167640000Y-60960000D03*
X165100000Y-60960000D03*
X162560000Y-60960000D03*
X160020000Y-60960000D03*
X157480000Y-60960000D03*
X154940000Y-60960000D03*
X152400000Y-60960000D03*
X149860000Y-60960000D03*
X147320000Y-60960000D03*
X144780000Y-60960000D03*
X142240000Y-60960000D03*
X139700000Y-60960000D03*
X137160000Y-60960000D03*
X134620000Y-60960000D03*
X132080000Y-60960000D03*
X129540000Y-60960000D03*
X127000000Y-60960000D03*
X124460000Y-60960000D03*
X121920000Y-60960000D03*
X119380000Y-60960000D03*
X116840000Y-60960000D03*
X114300000Y-60960000D03*
X111760000Y-60960000D03*
X109220000Y-60960000D03*
X106680000Y-60960000D03*
X104140000Y-60960000D03*
X101600000Y-60960000D03*
X99060000Y-60960000D03*
X96520000Y-60960000D03*
X93980000Y-60960000D03*
X91440000Y-60960000D03*
X88900000Y-60960000D03*
%TD*%
D10*
%TO.C,REF\u002A\u002A*%
X121920000Y-127000000D03*
%TD*%
%TO.C,*%
X104140000Y-109220000D03*
%TD*%
%TO.C,REF\u002A\u002A*%
X177800000Y-132080000D03*
D11*
X175260000Y-132080000D03*
X172720000Y-132080000D03*
X170180000Y-132080000D03*
X167640000Y-132080000D03*
X165100000Y-132080000D03*
X162560000Y-132080000D03*
X160020000Y-132080000D03*
X157480000Y-132080000D03*
X154940000Y-132080000D03*
X152400000Y-132080000D03*
X149860000Y-132080000D03*
X147320000Y-132080000D03*
X144780000Y-132080000D03*
X142240000Y-132080000D03*
X139700000Y-132080000D03*
X137160000Y-132080000D03*
X134620000Y-132080000D03*
X132080000Y-132080000D03*
X129540000Y-132080000D03*
X127000000Y-132080000D03*
X124460000Y-132080000D03*
X121920000Y-132080000D03*
X119380000Y-132080000D03*
X116840000Y-132080000D03*
X114300000Y-132080000D03*
X111760000Y-132080000D03*
X109220000Y-132080000D03*
X106680000Y-132080000D03*
X104140000Y-132080000D03*
X101600000Y-132080000D03*
X99060000Y-132080000D03*
X96520000Y-132080000D03*
X93980000Y-132080000D03*
X91440000Y-132080000D03*
X88900000Y-132080000D03*
%TD*%
D10*
%TO.C,REF\u002A\u002A*%
X122174000Y-101600000D03*
%TD*%
%TO.C,REF\u002A\u002A*%
X122174000Y-76200000D03*
%TD*%
%TO.C,REF\u002A\u002A*%
X177800000Y-119380000D03*
D11*
X175260000Y-119380000D03*
X172720000Y-119380000D03*
X170180000Y-119380000D03*
X167640000Y-119380000D03*
X165100000Y-119380000D03*
X162560000Y-119380000D03*
X160020000Y-119380000D03*
X157480000Y-119380000D03*
X154940000Y-119380000D03*
X152400000Y-119380000D03*
X149860000Y-119380000D03*
X147320000Y-119380000D03*
X144780000Y-119380000D03*
X142240000Y-119380000D03*
X139700000Y-119380000D03*
X137160000Y-119380000D03*
X134620000Y-119380000D03*
X132080000Y-119380000D03*
X129540000Y-119380000D03*
X127000000Y-119380000D03*
X124460000Y-119380000D03*
X121920000Y-119380000D03*
X119380000Y-119380000D03*
X116840000Y-119380000D03*
X114300000Y-119380000D03*
X111760000Y-119380000D03*
X109220000Y-119380000D03*
X106680000Y-119380000D03*
X104140000Y-119380000D03*
X101600000Y-119380000D03*
X99060000Y-119380000D03*
X96520000Y-119380000D03*
X93980000Y-119380000D03*
X91440000Y-119380000D03*
X88900000Y-119380000D03*
%TD*%
D10*
%TO.C,REF\u002A\u002A*%
X177800000Y-121920000D03*
D11*
X175260000Y-121920000D03*
X172720000Y-121920000D03*
X170180000Y-121920000D03*
X167640000Y-121920000D03*
X165100000Y-121920000D03*
X162560000Y-121920000D03*
X160020000Y-121920000D03*
X157480000Y-121920000D03*
X154940000Y-121920000D03*
X152400000Y-121920000D03*
X149860000Y-121920000D03*
X147320000Y-121920000D03*
X144780000Y-121920000D03*
X142240000Y-121920000D03*
X139700000Y-121920000D03*
X137160000Y-121920000D03*
X134620000Y-121920000D03*
X132080000Y-121920000D03*
X129540000Y-121920000D03*
X127000000Y-121920000D03*
X124460000Y-121920000D03*
X121920000Y-121920000D03*
X119380000Y-121920000D03*
X116840000Y-121920000D03*
X114300000Y-121920000D03*
X111760000Y-121920000D03*
X109220000Y-121920000D03*
X106680000Y-121920000D03*
X104140000Y-121920000D03*
X101600000Y-121920000D03*
X99060000Y-121920000D03*
X96520000Y-121920000D03*
X93980000Y-121920000D03*
X91440000Y-121920000D03*
X88900000Y-121920000D03*
%TD*%
D10*
%TO.C,REF\u002A\u002A*%
X177800000Y-139700000D03*
D11*
X175260000Y-139700000D03*
X172720000Y-139700000D03*
X170180000Y-139700000D03*
X167640000Y-139700000D03*
X165100000Y-139700000D03*
X162560000Y-139700000D03*
X160020000Y-139700000D03*
X157480000Y-139700000D03*
X154940000Y-139700000D03*
X152400000Y-139700000D03*
X149860000Y-139700000D03*
X147320000Y-139700000D03*
X144780000Y-139700000D03*
X142240000Y-139700000D03*
X139700000Y-139700000D03*
X137160000Y-139700000D03*
X134620000Y-139700000D03*
X132080000Y-139700000D03*
X129540000Y-139700000D03*
X127000000Y-139700000D03*
X124460000Y-139700000D03*
X121920000Y-139700000D03*
X119380000Y-139700000D03*
X116840000Y-139700000D03*
X114300000Y-139700000D03*
X111760000Y-139700000D03*
X109220000Y-139700000D03*
X106680000Y-139700000D03*
X104140000Y-139700000D03*
X101600000Y-139700000D03*
X99060000Y-139700000D03*
X96520000Y-139700000D03*
X93980000Y-139700000D03*
X91440000Y-139700000D03*
X88900000Y-139700000D03*
%TD*%
D10*
%TO.C,REF\u002A\u002A*%
X104140000Y-152654000D03*
%TD*%
%TO.C,REF\u002A\u002A*%
X177800000Y-142240000D03*
D11*
X175260000Y-142240000D03*
X172720000Y-142240000D03*
X170180000Y-142240000D03*
X167640000Y-142240000D03*
X165100000Y-142240000D03*
X162560000Y-142240000D03*
X160020000Y-142240000D03*
X157480000Y-142240000D03*
X154940000Y-142240000D03*
X152400000Y-142240000D03*
X149860000Y-142240000D03*
X147320000Y-142240000D03*
X144780000Y-142240000D03*
X142240000Y-142240000D03*
X139700000Y-142240000D03*
X137160000Y-142240000D03*
X134620000Y-142240000D03*
X132080000Y-142240000D03*
X129540000Y-142240000D03*
X127000000Y-142240000D03*
X124460000Y-142240000D03*
X121920000Y-142240000D03*
X119380000Y-142240000D03*
X116840000Y-142240000D03*
X114300000Y-142240000D03*
X111760000Y-142240000D03*
X109220000Y-142240000D03*
X106680000Y-142240000D03*
X104140000Y-142240000D03*
X101600000Y-142240000D03*
X99060000Y-142240000D03*
X96520000Y-142240000D03*
X93980000Y-142240000D03*
X91440000Y-142240000D03*
X88900000Y-142240000D03*
%TD*%
D10*
%TO.C,*%
X142240000Y-109220000D03*
%TD*%
%TO.C,REF\u002A\u002A*%
X177800000Y-111760000D03*
D11*
X175260000Y-111760000D03*
X172720000Y-111760000D03*
X170180000Y-111760000D03*
X167640000Y-111760000D03*
X165100000Y-111760000D03*
X162560000Y-111760000D03*
X160020000Y-111760000D03*
X157480000Y-111760000D03*
X154940000Y-111760000D03*
X152400000Y-111760000D03*
X149860000Y-111760000D03*
X147320000Y-111760000D03*
X144780000Y-111760000D03*
X142240000Y-111760000D03*
X139700000Y-111760000D03*
X137160000Y-111760000D03*
X134620000Y-111760000D03*
X132080000Y-111760000D03*
X129540000Y-111760000D03*
X127000000Y-111760000D03*
X124460000Y-111760000D03*
X121920000Y-111760000D03*
X119380000Y-111760000D03*
X116840000Y-111760000D03*
X114300000Y-111760000D03*
X111760000Y-111760000D03*
X109220000Y-111760000D03*
X106680000Y-111760000D03*
X104140000Y-111760000D03*
X101600000Y-111760000D03*
X99060000Y-111760000D03*
X96520000Y-111760000D03*
X93980000Y-111760000D03*
X91440000Y-111760000D03*
X88900000Y-111760000D03*
%TD*%
D10*
%TO.C,REF\u002A\u002A*%
X177800000Y-96520000D03*
D11*
X175260000Y-96520000D03*
X172720000Y-96520000D03*
X170180000Y-96520000D03*
X167640000Y-96520000D03*
X165100000Y-96520000D03*
X162560000Y-96520000D03*
X160020000Y-96520000D03*
X157480000Y-96520000D03*
X154940000Y-96520000D03*
X152400000Y-96520000D03*
X149860000Y-96520000D03*
X147320000Y-96520000D03*
X144780000Y-96520000D03*
X142240000Y-96520000D03*
X139700000Y-96520000D03*
X137160000Y-96520000D03*
X134620000Y-96520000D03*
X132080000Y-96520000D03*
X129540000Y-96520000D03*
X127000000Y-96520000D03*
X124460000Y-96520000D03*
X121920000Y-96520000D03*
X119380000Y-96520000D03*
X116840000Y-96520000D03*
X114300000Y-96520000D03*
X111760000Y-96520000D03*
X109220000Y-96520000D03*
X106680000Y-96520000D03*
X104140000Y-96520000D03*
X101600000Y-96520000D03*
X99060000Y-96520000D03*
X96520000Y-96520000D03*
X93980000Y-96520000D03*
X91440000Y-96520000D03*
X88900000Y-96520000D03*
%TD*%
D10*
%TO.C,REF\u002A\u002A*%
X177800000Y-116840000D03*
D11*
X175260000Y-116840000D03*
X172720000Y-116840000D03*
X170180000Y-116840000D03*
X167640000Y-116840000D03*
X165100000Y-116840000D03*
X162560000Y-116840000D03*
X160020000Y-116840000D03*
X157480000Y-116840000D03*
X154940000Y-116840000D03*
X152400000Y-116840000D03*
X149860000Y-116840000D03*
X147320000Y-116840000D03*
X144780000Y-116840000D03*
X142240000Y-116840000D03*
X139700000Y-116840000D03*
X137160000Y-116840000D03*
X134620000Y-116840000D03*
X132080000Y-116840000D03*
X129540000Y-116840000D03*
X127000000Y-116840000D03*
X124460000Y-116840000D03*
X121920000Y-116840000D03*
X119380000Y-116840000D03*
X116840000Y-116840000D03*
X114300000Y-116840000D03*
X111760000Y-116840000D03*
X109220000Y-116840000D03*
X106680000Y-116840000D03*
X104140000Y-116840000D03*
X101600000Y-116840000D03*
X99060000Y-116840000D03*
X96520000Y-116840000D03*
X93980000Y-116840000D03*
X91440000Y-116840000D03*
X88900000Y-116840000D03*
%TD*%
D10*
%TO.C,REF\u002A\u002A*%
X177800000Y-53340000D03*
D11*
X175260000Y-53340000D03*
X172720000Y-53340000D03*
X170180000Y-53340000D03*
X167640000Y-53340000D03*
X165100000Y-53340000D03*
X162560000Y-53340000D03*
X160020000Y-53340000D03*
X157480000Y-53340000D03*
X154940000Y-53340000D03*
X152400000Y-53340000D03*
X149860000Y-53340000D03*
X147320000Y-53340000D03*
X144780000Y-53340000D03*
X142240000Y-53340000D03*
X139700000Y-53340000D03*
X137160000Y-53340000D03*
X134620000Y-53340000D03*
X132080000Y-53340000D03*
X129540000Y-53340000D03*
X127000000Y-53340000D03*
X124460000Y-53340000D03*
X121920000Y-53340000D03*
X119380000Y-53340000D03*
X116840000Y-53340000D03*
X114300000Y-53340000D03*
X111760000Y-53340000D03*
X109220000Y-53340000D03*
X106680000Y-53340000D03*
X104140000Y-53340000D03*
X101600000Y-53340000D03*
X99060000Y-53340000D03*
X96520000Y-53340000D03*
X93980000Y-53340000D03*
X91440000Y-53340000D03*
X88900000Y-53340000D03*
%TD*%
D10*
%TO.C,REF\u002A\u002A*%
X142494000Y-127000000D03*
%TD*%
%TO.C,REF\u002A\u002A*%
X177800000Y-114300000D03*
D11*
X175260000Y-114300000D03*
X172720000Y-114300000D03*
X170180000Y-114300000D03*
X167640000Y-114300000D03*
X165100000Y-114300000D03*
X162560000Y-114300000D03*
X160020000Y-114300000D03*
X157480000Y-114300000D03*
X154940000Y-114300000D03*
X152400000Y-114300000D03*
X149860000Y-114300000D03*
X147320000Y-114300000D03*
X144780000Y-114300000D03*
X142240000Y-114300000D03*
X139700000Y-114300000D03*
X137160000Y-114300000D03*
X134620000Y-114300000D03*
X132080000Y-114300000D03*
X129540000Y-114300000D03*
X127000000Y-114300000D03*
X124460000Y-114300000D03*
X121920000Y-114300000D03*
X119380000Y-114300000D03*
X116840000Y-114300000D03*
X114300000Y-114300000D03*
X111760000Y-114300000D03*
X109220000Y-114300000D03*
X106680000Y-114300000D03*
X104140000Y-114300000D03*
X101600000Y-114300000D03*
X99060000Y-114300000D03*
X96520000Y-114300000D03*
X93980000Y-114300000D03*
X91440000Y-114300000D03*
X88900000Y-114300000D03*
%TD*%
D10*
%TO.C,REF\u002A\u002A*%
X162560000Y-101600000D03*
%TD*%
D12*
%TO.C,REF\u002A\u002A*%
X85090000Y-96266000D03*
D13*
X85090000Y-94266000D03*
%TD*%
D10*
%TO.C,REF\u002A\u002A*%
X177800000Y-147320000D03*
D11*
X175260000Y-147320000D03*
X172720000Y-147320000D03*
X170180000Y-147320000D03*
X167640000Y-147320000D03*
X165100000Y-147320000D03*
X162560000Y-147320000D03*
X160020000Y-147320000D03*
X157480000Y-147320000D03*
X154940000Y-147320000D03*
X152400000Y-147320000D03*
X149860000Y-147320000D03*
X147320000Y-147320000D03*
X144780000Y-147320000D03*
X142240000Y-147320000D03*
X139700000Y-147320000D03*
X137160000Y-147320000D03*
X134620000Y-147320000D03*
X132080000Y-147320000D03*
X129540000Y-147320000D03*
X127000000Y-147320000D03*
X124460000Y-147320000D03*
X121920000Y-147320000D03*
X119380000Y-147320000D03*
X116840000Y-147320000D03*
X114300000Y-147320000D03*
X111760000Y-147320000D03*
X109220000Y-147320000D03*
X106680000Y-147320000D03*
X104140000Y-147320000D03*
X101600000Y-147320000D03*
X99060000Y-147320000D03*
X96520000Y-147320000D03*
X93980000Y-147320000D03*
X91440000Y-147320000D03*
X88900000Y-147320000D03*
%TD*%
D10*
%TO.C,*%
X104140000Y-134620000D03*
%TD*%
%TO.C,REF\u002A\u002A*%
X177800000Y-78740000D03*
D11*
X175260000Y-78740000D03*
X172720000Y-78740000D03*
X170180000Y-78740000D03*
X167640000Y-78740000D03*
X165100000Y-78740000D03*
X162560000Y-78740000D03*
X160020000Y-78740000D03*
X157480000Y-78740000D03*
X154940000Y-78740000D03*
X152400000Y-78740000D03*
X149860000Y-78740000D03*
X147320000Y-78740000D03*
X144780000Y-78740000D03*
X142240000Y-78740000D03*
X139700000Y-78740000D03*
X137160000Y-78740000D03*
X134620000Y-78740000D03*
X132080000Y-78740000D03*
X129540000Y-78740000D03*
X127000000Y-78740000D03*
X124460000Y-78740000D03*
X121920000Y-78740000D03*
X119380000Y-78740000D03*
X116840000Y-78740000D03*
X114300000Y-78740000D03*
X111760000Y-78740000D03*
X109220000Y-78740000D03*
X106680000Y-78740000D03*
X104140000Y-78740000D03*
X101600000Y-78740000D03*
X99060000Y-78740000D03*
X96520000Y-78740000D03*
X93980000Y-78740000D03*
X91440000Y-78740000D03*
X88900000Y-78740000D03*
%TD*%
D10*
%TO.C,REF\u002A\u002A*%
X162560000Y-76200000D03*
%TD*%
%TO.C,*%
X121920000Y-83820000D03*
%TD*%
%TO.C,REF\u002A\u002A*%
X142494000Y-152400000D03*
%TD*%
%TO.C,REF\u002A\u002A*%
X121920000Y-152400000D03*
%TD*%
%TO.C,REF\u002A\u002A*%
X177800000Y-149860000D03*
D11*
X175260000Y-149860000D03*
X172720000Y-149860000D03*
X170180000Y-149860000D03*
X167640000Y-149860000D03*
X165100000Y-149860000D03*
X162560000Y-149860000D03*
X160020000Y-149860000D03*
X157480000Y-149860000D03*
X154940000Y-149860000D03*
X152400000Y-149860000D03*
X149860000Y-149860000D03*
X147320000Y-149860000D03*
X144780000Y-149860000D03*
X142240000Y-149860000D03*
X139700000Y-149860000D03*
X137160000Y-149860000D03*
X134620000Y-149860000D03*
X132080000Y-149860000D03*
X129540000Y-149860000D03*
X127000000Y-149860000D03*
X124460000Y-149860000D03*
X121920000Y-149860000D03*
X119380000Y-149860000D03*
X116840000Y-149860000D03*
X114300000Y-149860000D03*
X111760000Y-149860000D03*
X109220000Y-149860000D03*
X106680000Y-149860000D03*
X104140000Y-149860000D03*
X101600000Y-149860000D03*
X99060000Y-149860000D03*
X96520000Y-149860000D03*
X93980000Y-149860000D03*
X91440000Y-149860000D03*
X88900000Y-149860000D03*
%TD*%
D10*
%TO.C,REF\u002A\u002A*%
X177800000Y-144780000D03*
D11*
X175260000Y-144780000D03*
X172720000Y-144780000D03*
X170180000Y-144780000D03*
X167640000Y-144780000D03*
X165100000Y-144780000D03*
X162560000Y-144780000D03*
X160020000Y-144780000D03*
X157480000Y-144780000D03*
X154940000Y-144780000D03*
X152400000Y-144780000D03*
X149860000Y-144780000D03*
X147320000Y-144780000D03*
X144780000Y-144780000D03*
X142240000Y-144780000D03*
X139700000Y-144780000D03*
X137160000Y-144780000D03*
X134620000Y-144780000D03*
X132080000Y-144780000D03*
X129540000Y-144780000D03*
X127000000Y-144780000D03*
X124460000Y-144780000D03*
X121920000Y-144780000D03*
X119380000Y-144780000D03*
X116840000Y-144780000D03*
X114300000Y-144780000D03*
X111760000Y-144780000D03*
X109220000Y-144780000D03*
X106680000Y-144780000D03*
X104140000Y-144780000D03*
X101600000Y-144780000D03*
X99060000Y-144780000D03*
X96520000Y-144780000D03*
X93980000Y-144780000D03*
X91440000Y-144780000D03*
X88900000Y-144780000D03*
%TD*%
D10*
%TO.C,REF\u002A\u002A*%
X104140000Y-58420000D03*
%TD*%
%TO.C,REF\u002A\u002A*%
X177800000Y-137160000D03*
D11*
X175260000Y-137160000D03*
X172720000Y-137160000D03*
X170180000Y-137160000D03*
X167640000Y-137160000D03*
X165100000Y-137160000D03*
X162560000Y-137160000D03*
X160020000Y-137160000D03*
X157480000Y-137160000D03*
X154940000Y-137160000D03*
X152400000Y-137160000D03*
X149860000Y-137160000D03*
X147320000Y-137160000D03*
X144780000Y-137160000D03*
X142240000Y-137160000D03*
X139700000Y-137160000D03*
X137160000Y-137160000D03*
X134620000Y-137160000D03*
X132080000Y-137160000D03*
X129540000Y-137160000D03*
X127000000Y-137160000D03*
X124460000Y-137160000D03*
X121920000Y-137160000D03*
X119380000Y-137160000D03*
X116840000Y-137160000D03*
X114300000Y-137160000D03*
X111760000Y-137160000D03*
X109220000Y-137160000D03*
X106680000Y-137160000D03*
X104140000Y-137160000D03*
X101600000Y-137160000D03*
X99060000Y-137160000D03*
X96520000Y-137160000D03*
X93980000Y-137160000D03*
X91440000Y-137160000D03*
X88900000Y-137160000D03*
%TD*%
D10*
%TO.C,REF\u002A\u002A*%
X142240000Y-101600000D03*
%TD*%
%TO.C,REF\u002A\u002A*%
X177800000Y-81280000D03*
D11*
X175260000Y-81280000D03*
X172720000Y-81280000D03*
X170180000Y-81280000D03*
X167640000Y-81280000D03*
X165100000Y-81280000D03*
X162560000Y-81280000D03*
X160020000Y-81280000D03*
X157480000Y-81280000D03*
X154940000Y-81280000D03*
X152400000Y-81280000D03*
X149860000Y-81280000D03*
X147320000Y-81280000D03*
X144780000Y-81280000D03*
X142240000Y-81280000D03*
X139700000Y-81280000D03*
X137160000Y-81280000D03*
X134620000Y-81280000D03*
X132080000Y-81280000D03*
X129540000Y-81280000D03*
X127000000Y-81280000D03*
X124460000Y-81280000D03*
X121920000Y-81280000D03*
X119380000Y-81280000D03*
X116840000Y-81280000D03*
X114300000Y-81280000D03*
X111760000Y-81280000D03*
X109220000Y-81280000D03*
X106680000Y-81280000D03*
X104140000Y-81280000D03*
X101600000Y-81280000D03*
X99060000Y-81280000D03*
X96520000Y-81280000D03*
X93980000Y-81280000D03*
X91440000Y-81280000D03*
X88900000Y-81280000D03*
%TD*%
D10*
%TO.C,REF\u002A\u002A*%
X177800000Y-124460000D03*
D11*
X175260000Y-124460000D03*
X172720000Y-124460000D03*
X170180000Y-124460000D03*
X167640000Y-124460000D03*
X165100000Y-124460000D03*
X162560000Y-124460000D03*
X160020000Y-124460000D03*
X157480000Y-124460000D03*
X154940000Y-124460000D03*
X152400000Y-124460000D03*
X149860000Y-124460000D03*
X147320000Y-124460000D03*
X144780000Y-124460000D03*
X142240000Y-124460000D03*
X139700000Y-124460000D03*
X137160000Y-124460000D03*
X134620000Y-124460000D03*
X132080000Y-124460000D03*
X129540000Y-124460000D03*
X127000000Y-124460000D03*
X124460000Y-124460000D03*
X121920000Y-124460000D03*
X119380000Y-124460000D03*
X116840000Y-124460000D03*
X114300000Y-124460000D03*
X111760000Y-124460000D03*
X109220000Y-124460000D03*
X106680000Y-124460000D03*
X104140000Y-124460000D03*
X101600000Y-124460000D03*
X99060000Y-124460000D03*
X96520000Y-124460000D03*
X93980000Y-124460000D03*
X91440000Y-124460000D03*
X88900000Y-124460000D03*
%TD*%
D10*
%TO.C,REF\u002A\u002A*%
X142240000Y-58420000D03*
%TD*%
%TO.C,REF\u002A\u002A*%
X78740000Y-53340000D03*
D11*
X81280000Y-53340000D03*
X78740000Y-55880000D03*
X81280000Y-55880000D03*
X78740000Y-58420000D03*
X81280000Y-58420000D03*
X78740000Y-60960000D03*
X81280000Y-60960000D03*
X78740000Y-63500000D03*
X81280000Y-63500000D03*
X78740000Y-66040000D03*
X81280000Y-66040000D03*
X78740000Y-68580000D03*
X81280000Y-68580000D03*
X78740000Y-71120000D03*
X81280000Y-71120000D03*
X78740000Y-73660000D03*
X81280000Y-73660000D03*
X78740000Y-76200000D03*
X81280000Y-76200000D03*
X78740000Y-78740000D03*
X81280000Y-78740000D03*
X78740000Y-81280000D03*
X81280000Y-81280000D03*
X78740000Y-83820000D03*
X81280000Y-83820000D03*
X78740000Y-86360000D03*
X81280000Y-86360000D03*
X78740000Y-88900000D03*
X81280000Y-88900000D03*
X78740000Y-91440000D03*
X81280000Y-91440000D03*
X78740000Y-93980000D03*
X81280000Y-93980000D03*
X78740000Y-96520000D03*
X81280000Y-96520000D03*
X78740000Y-99060000D03*
X81280000Y-99060000D03*
X78740000Y-101600000D03*
X81280000Y-101600000D03*
X78740000Y-104140000D03*
X81280000Y-104140000D03*
X78740000Y-106680000D03*
X81280000Y-106680000D03*
X78740000Y-109220000D03*
X81280000Y-109220000D03*
X78740000Y-111760000D03*
X81280000Y-111760000D03*
X78740000Y-114300000D03*
X81280000Y-114300000D03*
X78740000Y-116840000D03*
X81280000Y-116840000D03*
X78740000Y-119380000D03*
X81280000Y-119380000D03*
X78740000Y-121920000D03*
X81280000Y-121920000D03*
X78740000Y-124460000D03*
X81280000Y-124460000D03*
X78740000Y-127000000D03*
X81280000Y-127000000D03*
X78740000Y-129540000D03*
X81280000Y-129540000D03*
X78740000Y-132080000D03*
X81280000Y-132080000D03*
X78740000Y-134620000D03*
X81280000Y-134620000D03*
X78740000Y-137160000D03*
X81280000Y-137160000D03*
X78740000Y-139700000D03*
X81280000Y-139700000D03*
X78740000Y-142240000D03*
X81280000Y-142240000D03*
X78740000Y-144780000D03*
X81280000Y-144780000D03*
X78740000Y-147320000D03*
X81280000Y-147320000D03*
X78740000Y-149860000D03*
X81280000Y-149860000D03*
X78740000Y-152400000D03*
X81280000Y-152400000D03*
%TD*%
D10*
%TO.C,REF\u002A\u002A*%
X104140000Y-101600000D03*
%TD*%
%TO.C,REF\u002A\u002A*%
X177800000Y-104140000D03*
D11*
X175260000Y-104140000D03*
X172720000Y-104140000D03*
X170180000Y-104140000D03*
X167640000Y-104140000D03*
X165100000Y-104140000D03*
X162560000Y-104140000D03*
X160020000Y-104140000D03*
X157480000Y-104140000D03*
X154940000Y-104140000D03*
X152400000Y-104140000D03*
X149860000Y-104140000D03*
X147320000Y-104140000D03*
X144780000Y-104140000D03*
X142240000Y-104140000D03*
X139700000Y-104140000D03*
X137160000Y-104140000D03*
X134620000Y-104140000D03*
X132080000Y-104140000D03*
X129540000Y-104140000D03*
X127000000Y-104140000D03*
X124460000Y-104140000D03*
X121920000Y-104140000D03*
X119380000Y-104140000D03*
X116840000Y-104140000D03*
X114300000Y-104140000D03*
X111760000Y-104140000D03*
X109220000Y-104140000D03*
X106680000Y-104140000D03*
X104140000Y-104140000D03*
X101600000Y-104140000D03*
X99060000Y-104140000D03*
X96520000Y-104140000D03*
X93980000Y-104140000D03*
X91440000Y-104140000D03*
X88900000Y-104140000D03*
%TD*%
D10*
%TO.C,*%
X142240000Y-83820000D03*
%TD*%
%TO.C,REF\u002A\u002A*%
X177800000Y-129540000D03*
D11*
X175260000Y-129540000D03*
X172720000Y-129540000D03*
X170180000Y-129540000D03*
X167640000Y-129540000D03*
X165100000Y-129540000D03*
X162560000Y-129540000D03*
X160020000Y-129540000D03*
X157480000Y-129540000D03*
X154940000Y-129540000D03*
X152400000Y-129540000D03*
X149860000Y-129540000D03*
X147320000Y-129540000D03*
X144780000Y-129540000D03*
X142240000Y-129540000D03*
X139700000Y-129540000D03*
X137160000Y-129540000D03*
X134620000Y-129540000D03*
X132080000Y-129540000D03*
X129540000Y-129540000D03*
X127000000Y-129540000D03*
X124460000Y-129540000D03*
X121920000Y-129540000D03*
X119380000Y-129540000D03*
X116840000Y-129540000D03*
X114300000Y-129540000D03*
X111760000Y-129540000D03*
X109220000Y-129540000D03*
X106680000Y-129540000D03*
X104140000Y-129540000D03*
X101600000Y-129540000D03*
X99060000Y-129540000D03*
X96520000Y-129540000D03*
X93980000Y-129540000D03*
X91440000Y-129540000D03*
X88900000Y-129540000D03*
%TD*%
D10*
%TO.C,REF\u002A\u002A*%
X177800000Y-71120000D03*
D11*
X175260000Y-71120000D03*
X172720000Y-71120000D03*
X170180000Y-71120000D03*
X167640000Y-71120000D03*
X165100000Y-71120000D03*
X162560000Y-71120000D03*
X160020000Y-71120000D03*
X157480000Y-71120000D03*
X154940000Y-71120000D03*
X152400000Y-71120000D03*
X149860000Y-71120000D03*
X147320000Y-71120000D03*
X144780000Y-71120000D03*
X142240000Y-71120000D03*
X139700000Y-71120000D03*
X137160000Y-71120000D03*
X134620000Y-71120000D03*
X132080000Y-71120000D03*
X129540000Y-71120000D03*
X127000000Y-71120000D03*
X124460000Y-71120000D03*
X121920000Y-71120000D03*
X119380000Y-71120000D03*
X116840000Y-71120000D03*
X114300000Y-71120000D03*
X111760000Y-71120000D03*
X109220000Y-71120000D03*
X106680000Y-71120000D03*
X104140000Y-71120000D03*
X101600000Y-71120000D03*
X99060000Y-71120000D03*
X96520000Y-71120000D03*
X93980000Y-71120000D03*
X91440000Y-71120000D03*
X88900000Y-71120000D03*
%TD*%
D10*
%TO.C,REF\u002A\u002A*%
X104140000Y-76200000D03*
%TD*%
%TO.C,*%
X121920000Y-109220000D03*
%TD*%
%TO.C,REF\u002A\u002A*%
X162560000Y-58420000D03*
%TD*%
%TO.C,REF\u002A\u002A*%
X162560000Y-127000000D03*
%TD*%
%TO.C,REF\u002A\u002A*%
X177800000Y-86360000D03*
D11*
X175260000Y-86360000D03*
X172720000Y-86360000D03*
X170180000Y-86360000D03*
X167640000Y-86360000D03*
X165100000Y-86360000D03*
X162560000Y-86360000D03*
X160020000Y-86360000D03*
X157480000Y-86360000D03*
X154940000Y-86360000D03*
X152400000Y-86360000D03*
X149860000Y-86360000D03*
X147320000Y-86360000D03*
X144780000Y-86360000D03*
X142240000Y-86360000D03*
X139700000Y-86360000D03*
X137160000Y-86360000D03*
X134620000Y-86360000D03*
X132080000Y-86360000D03*
X129540000Y-86360000D03*
X127000000Y-86360000D03*
X124460000Y-86360000D03*
X121920000Y-86360000D03*
X119380000Y-86360000D03*
X116840000Y-86360000D03*
X114300000Y-86360000D03*
X111760000Y-86360000D03*
X109220000Y-86360000D03*
X106680000Y-86360000D03*
X104140000Y-86360000D03*
X101600000Y-86360000D03*
X99060000Y-86360000D03*
X96520000Y-86360000D03*
X93980000Y-86360000D03*
X91440000Y-86360000D03*
X88900000Y-86360000D03*
%TD*%
D10*
%TO.C,REF\u002A\u002A*%
X177800000Y-73660000D03*
D11*
X175260000Y-73660000D03*
X172720000Y-73660000D03*
X170180000Y-73660000D03*
X167640000Y-73660000D03*
X165100000Y-73660000D03*
X162560000Y-73660000D03*
X160020000Y-73660000D03*
X157480000Y-73660000D03*
X154940000Y-73660000D03*
X152400000Y-73660000D03*
X149860000Y-73660000D03*
X147320000Y-73660000D03*
X144780000Y-73660000D03*
X142240000Y-73660000D03*
X139700000Y-73660000D03*
X137160000Y-73660000D03*
X134620000Y-73660000D03*
X132080000Y-73660000D03*
X129540000Y-73660000D03*
X127000000Y-73660000D03*
X124460000Y-73660000D03*
X121920000Y-73660000D03*
X119380000Y-73660000D03*
X116840000Y-73660000D03*
X114300000Y-73660000D03*
X111760000Y-73660000D03*
X109220000Y-73660000D03*
X106680000Y-73660000D03*
X104140000Y-73660000D03*
X101600000Y-73660000D03*
X99060000Y-73660000D03*
X96520000Y-73660000D03*
X93980000Y-73660000D03*
X91440000Y-73660000D03*
X88900000Y-73660000D03*
%TD*%
D10*
%TO.C,REF\u002A\u002A*%
X142240000Y-76200000D03*
%TD*%
%TO.C,REF\u002A\u002A*%
X104140000Y-127000000D03*
%TD*%
%TO.C,*%
X104140000Y-83820000D03*
%TD*%
%TO.C,REF\u002A\u002A*%
X177800000Y-106680000D03*
D11*
X175260000Y-106680000D03*
X172720000Y-106680000D03*
X170180000Y-106680000D03*
X167640000Y-106680000D03*
X165100000Y-106680000D03*
X162560000Y-106680000D03*
X160020000Y-106680000D03*
X157480000Y-106680000D03*
X154940000Y-106680000D03*
X152400000Y-106680000D03*
X149860000Y-106680000D03*
X147320000Y-106680000D03*
X144780000Y-106680000D03*
X142240000Y-106680000D03*
X139700000Y-106680000D03*
X137160000Y-106680000D03*
X134620000Y-106680000D03*
X132080000Y-106680000D03*
X129540000Y-106680000D03*
X127000000Y-106680000D03*
X124460000Y-106680000D03*
X121920000Y-106680000D03*
X119380000Y-106680000D03*
X116840000Y-106680000D03*
X114300000Y-106680000D03*
X111760000Y-106680000D03*
X109220000Y-106680000D03*
X106680000Y-106680000D03*
X104140000Y-106680000D03*
X101600000Y-106680000D03*
X99060000Y-106680000D03*
X96520000Y-106680000D03*
X93980000Y-106680000D03*
X91440000Y-106680000D03*
X88900000Y-106680000D03*
%TD*%
D10*
%TO.C,REF\u002A\u002A*%
X177800000Y-91440000D03*
D11*
X175260000Y-91440000D03*
X172720000Y-91440000D03*
X170180000Y-91440000D03*
X167640000Y-91440000D03*
X165100000Y-91440000D03*
X162560000Y-91440000D03*
X160020000Y-91440000D03*
X157480000Y-91440000D03*
X154940000Y-91440000D03*
X152400000Y-91440000D03*
X149860000Y-91440000D03*
X147320000Y-91440000D03*
X144780000Y-91440000D03*
X142240000Y-91440000D03*
X139700000Y-91440000D03*
X137160000Y-91440000D03*
X134620000Y-91440000D03*
X132080000Y-91440000D03*
X129540000Y-91440000D03*
X127000000Y-91440000D03*
X124460000Y-91440000D03*
X121920000Y-91440000D03*
X119380000Y-91440000D03*
X116840000Y-91440000D03*
X114300000Y-91440000D03*
X111760000Y-91440000D03*
X109220000Y-91440000D03*
X106680000Y-91440000D03*
X104140000Y-91440000D03*
X101600000Y-91440000D03*
X99060000Y-91440000D03*
X96520000Y-91440000D03*
X93980000Y-91440000D03*
X91440000Y-91440000D03*
X88900000Y-91440000D03*
%TD*%
D10*
%TO.C,*%
X121920000Y-134620000D03*
%TD*%
%TO.C,REF\u002A\u002A*%
X177800000Y-93980000D03*
D11*
X175260000Y-93980000D03*
X172720000Y-93980000D03*
X170180000Y-93980000D03*
X167640000Y-93980000D03*
X165100000Y-93980000D03*
X162560000Y-93980000D03*
X160020000Y-93980000D03*
X157480000Y-93980000D03*
X154940000Y-93980000D03*
X152400000Y-93980000D03*
X149860000Y-93980000D03*
X147320000Y-93980000D03*
X144780000Y-93980000D03*
X142240000Y-93980000D03*
X139700000Y-93980000D03*
X137160000Y-93980000D03*
X134620000Y-93980000D03*
X132080000Y-93980000D03*
X129540000Y-93980000D03*
X127000000Y-93980000D03*
X124460000Y-93980000D03*
X121920000Y-93980000D03*
X119380000Y-93980000D03*
X116840000Y-93980000D03*
X114300000Y-93980000D03*
X111760000Y-93980000D03*
X109220000Y-93980000D03*
X106680000Y-93980000D03*
X104140000Y-93980000D03*
X101600000Y-93980000D03*
X99060000Y-93980000D03*
X96520000Y-93980000D03*
X93980000Y-93980000D03*
X91440000Y-93980000D03*
X88900000Y-93980000D03*
%TD*%
D10*
%TO.C,*%
X142240000Y-134620000D03*
%TD*%
%TO.C,REF\u002A\u002A*%
X162306000Y-152400000D03*
%TD*%
%TO.C,REF\u002A\u002A*%
X177800000Y-88900000D03*
D11*
X175260000Y-88900000D03*
X172720000Y-88900000D03*
X170180000Y-88900000D03*
X167640000Y-88900000D03*
X165100000Y-88900000D03*
X162560000Y-88900000D03*
X160020000Y-88900000D03*
X157480000Y-88900000D03*
X154940000Y-88900000D03*
X152400000Y-88900000D03*
X149860000Y-88900000D03*
X147320000Y-88900000D03*
X144780000Y-88900000D03*
X142240000Y-88900000D03*
X139700000Y-88900000D03*
X137160000Y-88900000D03*
X134620000Y-88900000D03*
X132080000Y-88900000D03*
X129540000Y-88900000D03*
X127000000Y-88900000D03*
X124460000Y-88900000D03*
X121920000Y-88900000D03*
X119380000Y-88900000D03*
X116840000Y-88900000D03*
X114300000Y-88900000D03*
X111760000Y-88900000D03*
X109220000Y-88900000D03*
X106680000Y-88900000D03*
X104140000Y-88900000D03*
X101600000Y-88900000D03*
X99060000Y-88900000D03*
X96520000Y-88900000D03*
X93980000Y-88900000D03*
X91440000Y-88900000D03*
X88900000Y-88900000D03*
%TD*%
D10*
%TO.C,REF\u002A\u002A*%
X177800000Y-99060000D03*
D11*
X175260000Y-99060000D03*
X172720000Y-99060000D03*
X170180000Y-99060000D03*
X167640000Y-99060000D03*
X165100000Y-99060000D03*
X162560000Y-99060000D03*
X160020000Y-99060000D03*
X157480000Y-99060000D03*
X154940000Y-99060000D03*
X152400000Y-99060000D03*
X149860000Y-99060000D03*
X147320000Y-99060000D03*
X144780000Y-99060000D03*
X142240000Y-99060000D03*
X139700000Y-99060000D03*
X137160000Y-99060000D03*
X134620000Y-99060000D03*
X132080000Y-99060000D03*
X129540000Y-99060000D03*
X127000000Y-99060000D03*
X124460000Y-99060000D03*
X121920000Y-99060000D03*
X119380000Y-99060000D03*
X116840000Y-99060000D03*
X114300000Y-99060000D03*
X111760000Y-99060000D03*
X109220000Y-99060000D03*
X106680000Y-99060000D03*
X104140000Y-99060000D03*
X101600000Y-99060000D03*
X99060000Y-99060000D03*
X96520000Y-99060000D03*
X93980000Y-99060000D03*
X91440000Y-99060000D03*
X88900000Y-99060000D03*
%TD*%
D10*
%TO.C,REF\u002A\u002A*%
X177800000Y-66040000D03*
D11*
X175260000Y-66040000D03*
X172720000Y-66040000D03*
X170180000Y-66040000D03*
X167640000Y-66040000D03*
X165100000Y-66040000D03*
X162560000Y-66040000D03*
X160020000Y-66040000D03*
X157480000Y-66040000D03*
X154940000Y-66040000D03*
X152400000Y-66040000D03*
X149860000Y-66040000D03*
X147320000Y-66040000D03*
X144780000Y-66040000D03*
X142240000Y-66040000D03*
X139700000Y-66040000D03*
X137160000Y-66040000D03*
X134620000Y-66040000D03*
X132080000Y-66040000D03*
X129540000Y-66040000D03*
X127000000Y-66040000D03*
X124460000Y-66040000D03*
X121920000Y-66040000D03*
X119380000Y-66040000D03*
X116840000Y-66040000D03*
X114300000Y-66040000D03*
X111760000Y-66040000D03*
X109220000Y-66040000D03*
X106680000Y-66040000D03*
X104140000Y-66040000D03*
X101600000Y-66040000D03*
X99060000Y-66040000D03*
X96520000Y-66040000D03*
X93980000Y-66040000D03*
X91440000Y-66040000D03*
X88900000Y-66040000D03*
%TD*%
D10*
%TO.C,*%
X162560000Y-83820000D03*
%TD*%
M02*
