%TF.GenerationSoftware,KiCad,Pcbnew,7.0.11+dfsg-1build4*%
%TF.CreationDate,2024-10-19T09:54:37-03:00*%
%TF.ProjectId,Z5,5a352e6b-6963-4616-945f-706362585858,rev?*%
%TF.SameCoordinates,Original*%
%TF.FileFunction,Legend,Top*%
%TF.FilePolarity,Positive*%
%FSLAX46Y46*%
G04 Gerber Fmt 4.6, Leading zero omitted, Abs format (unit mm)*
G04 Created by KiCad (PCBNEW 7.0.11+dfsg-1build4) date 2024-10-19 09:54:37*
%MOMM*%
%LPD*%
G01*
G04 APERTURE LIST*
%ADD10C,0.100000*%
%ADD11C,0.120000*%
G04 APERTURE END LIST*
D10*
X83361884Y-127634419D02*
X83361884Y-126634419D01*
X83361884Y-126634419D02*
X83599979Y-126634419D01*
X83599979Y-126634419D02*
X83742836Y-126682038D01*
X83742836Y-126682038D02*
X83838074Y-126777276D01*
X83838074Y-126777276D02*
X83885693Y-126872514D01*
X83885693Y-126872514D02*
X83933312Y-127062990D01*
X83933312Y-127062990D02*
X83933312Y-127205847D01*
X83933312Y-127205847D02*
X83885693Y-127396323D01*
X83885693Y-127396323D02*
X83838074Y-127491561D01*
X83838074Y-127491561D02*
X83742836Y-127586800D01*
X83742836Y-127586800D02*
X83599979Y-127634419D01*
X83599979Y-127634419D02*
X83361884Y-127634419D01*
X84266646Y-126634419D02*
X84885693Y-126634419D01*
X84885693Y-126634419D02*
X84552360Y-127015371D01*
X84552360Y-127015371D02*
X84695217Y-127015371D01*
X84695217Y-127015371D02*
X84790455Y-127062990D01*
X84790455Y-127062990D02*
X84838074Y-127110609D01*
X84838074Y-127110609D02*
X84885693Y-127205847D01*
X84885693Y-127205847D02*
X84885693Y-127443942D01*
X84885693Y-127443942D02*
X84838074Y-127539180D01*
X84838074Y-127539180D02*
X84790455Y-127586800D01*
X84790455Y-127586800D02*
X84695217Y-127634419D01*
X84695217Y-127634419D02*
X84409503Y-127634419D01*
X84409503Y-127634419D02*
X84314265Y-127586800D01*
X84314265Y-127586800D02*
X84266646Y-127539180D01*
X83568169Y-100678800D02*
X82711027Y-101964514D01*
X84472931Y-101726419D02*
X84139598Y-101250228D01*
X83901503Y-101726419D02*
X83901503Y-100726419D01*
X83901503Y-100726419D02*
X84282455Y-100726419D01*
X84282455Y-100726419D02*
X84377693Y-100774038D01*
X84377693Y-100774038D02*
X84425312Y-100821657D01*
X84425312Y-100821657D02*
X84472931Y-100916895D01*
X84472931Y-100916895D02*
X84472931Y-101059752D01*
X84472931Y-101059752D02*
X84425312Y-101154990D01*
X84425312Y-101154990D02*
X84377693Y-101202609D01*
X84377693Y-101202609D02*
X84282455Y-101250228D01*
X84282455Y-101250228D02*
X83901503Y-101250228D01*
X84901503Y-101202609D02*
X85234836Y-101202609D01*
X85377693Y-101726419D02*
X84901503Y-101726419D01*
X84901503Y-101726419D02*
X84901503Y-100726419D01*
X84901503Y-100726419D02*
X85377693Y-100726419D01*
X85758646Y-101678800D02*
X85901503Y-101726419D01*
X85901503Y-101726419D02*
X86139598Y-101726419D01*
X86139598Y-101726419D02*
X86234836Y-101678800D01*
X86234836Y-101678800D02*
X86282455Y-101631180D01*
X86282455Y-101631180D02*
X86330074Y-101535942D01*
X86330074Y-101535942D02*
X86330074Y-101440704D01*
X86330074Y-101440704D02*
X86282455Y-101345466D01*
X86282455Y-101345466D02*
X86234836Y-101297847D01*
X86234836Y-101297847D02*
X86139598Y-101250228D01*
X86139598Y-101250228D02*
X85949122Y-101202609D01*
X85949122Y-101202609D02*
X85853884Y-101154990D01*
X85853884Y-101154990D02*
X85806265Y-101107371D01*
X85806265Y-101107371D02*
X85758646Y-101012133D01*
X85758646Y-101012133D02*
X85758646Y-100916895D01*
X85758646Y-100916895D02*
X85806265Y-100821657D01*
X85806265Y-100821657D02*
X85853884Y-100774038D01*
X85853884Y-100774038D02*
X85949122Y-100726419D01*
X85949122Y-100726419D02*
X86187217Y-100726419D01*
X86187217Y-100726419D02*
X86330074Y-100774038D01*
X86758646Y-101202609D02*
X87091979Y-101202609D01*
X87234836Y-101726419D02*
X86758646Y-101726419D01*
X86758646Y-101726419D02*
X86758646Y-100726419D01*
X86758646Y-100726419D02*
X87234836Y-100726419D01*
X87520551Y-100726419D02*
X88091979Y-100726419D01*
X87806265Y-101726419D02*
X87806265Y-100726419D01*
X83314265Y-68674704D02*
X83790455Y-68674704D01*
X83219027Y-68960419D02*
X83552360Y-67960419D01*
X83552360Y-67960419D02*
X83885693Y-68960419D01*
X84409503Y-67960419D02*
X84504741Y-67960419D01*
X84504741Y-67960419D02*
X84599979Y-68008038D01*
X84599979Y-68008038D02*
X84647598Y-68055657D01*
X84647598Y-68055657D02*
X84695217Y-68150895D01*
X84695217Y-68150895D02*
X84742836Y-68341371D01*
X84742836Y-68341371D02*
X84742836Y-68579466D01*
X84742836Y-68579466D02*
X84695217Y-68769942D01*
X84695217Y-68769942D02*
X84647598Y-68865180D01*
X84647598Y-68865180D02*
X84599979Y-68912800D01*
X84599979Y-68912800D02*
X84504741Y-68960419D01*
X84504741Y-68960419D02*
X84409503Y-68960419D01*
X84409503Y-68960419D02*
X84314265Y-68912800D01*
X84314265Y-68912800D02*
X84266646Y-68865180D01*
X84266646Y-68865180D02*
X84219027Y-68769942D01*
X84219027Y-68769942D02*
X84171408Y-68579466D01*
X84171408Y-68579466D02*
X84171408Y-68341371D01*
X84171408Y-68341371D02*
X84219027Y-68150895D01*
X84219027Y-68150895D02*
X84266646Y-68055657D01*
X84266646Y-68055657D02*
X84314265Y-68008038D01*
X84314265Y-68008038D02*
X84409503Y-67960419D01*
X85219027Y-68960419D02*
X85409503Y-68960419D01*
X85409503Y-68960419D02*
X85504741Y-68912800D01*
X85504741Y-68912800D02*
X85552360Y-68865180D01*
X85552360Y-68865180D02*
X85647598Y-68722323D01*
X85647598Y-68722323D02*
X85695217Y-68531847D01*
X85695217Y-68531847D02*
X85695217Y-68150895D01*
X85695217Y-68150895D02*
X85647598Y-68055657D01*
X85647598Y-68055657D02*
X85599979Y-68008038D01*
X85599979Y-68008038D02*
X85504741Y-67960419D01*
X85504741Y-67960419D02*
X85314265Y-67960419D01*
X85314265Y-67960419D02*
X85219027Y-68008038D01*
X85219027Y-68008038D02*
X85171408Y-68055657D01*
X85171408Y-68055657D02*
X85123789Y-68150895D01*
X85123789Y-68150895D02*
X85123789Y-68388990D01*
X85123789Y-68388990D02*
X85171408Y-68484228D01*
X85171408Y-68484228D02*
X85219027Y-68531847D01*
X85219027Y-68531847D02*
X85314265Y-68579466D01*
X85314265Y-68579466D02*
X85504741Y-68579466D01*
X85504741Y-68579466D02*
X85599979Y-68531847D01*
X85599979Y-68531847D02*
X85647598Y-68484228D01*
X85647598Y-68484228D02*
X85695217Y-68388990D01*
X83060265Y-78834704D02*
X83536455Y-78834704D01*
X82965027Y-79120419D02*
X83298360Y-78120419D01*
X83298360Y-78120419D02*
X83631693Y-79120419D01*
X84155503Y-78120419D02*
X84250741Y-78120419D01*
X84250741Y-78120419D02*
X84345979Y-78168038D01*
X84345979Y-78168038D02*
X84393598Y-78215657D01*
X84393598Y-78215657D02*
X84441217Y-78310895D01*
X84441217Y-78310895D02*
X84488836Y-78501371D01*
X84488836Y-78501371D02*
X84488836Y-78739466D01*
X84488836Y-78739466D02*
X84441217Y-78929942D01*
X84441217Y-78929942D02*
X84393598Y-79025180D01*
X84393598Y-79025180D02*
X84345979Y-79072800D01*
X84345979Y-79072800D02*
X84250741Y-79120419D01*
X84250741Y-79120419D02*
X84155503Y-79120419D01*
X84155503Y-79120419D02*
X84060265Y-79072800D01*
X84060265Y-79072800D02*
X84012646Y-79025180D01*
X84012646Y-79025180D02*
X83965027Y-78929942D01*
X83965027Y-78929942D02*
X83917408Y-78739466D01*
X83917408Y-78739466D02*
X83917408Y-78501371D01*
X83917408Y-78501371D02*
X83965027Y-78310895D01*
X83965027Y-78310895D02*
X84012646Y-78215657D01*
X84012646Y-78215657D02*
X84060265Y-78168038D01*
X84060265Y-78168038D02*
X84155503Y-78120419D01*
X85393598Y-78120419D02*
X84917408Y-78120419D01*
X84917408Y-78120419D02*
X84869789Y-78596609D01*
X84869789Y-78596609D02*
X84917408Y-78548990D01*
X84917408Y-78548990D02*
X85012646Y-78501371D01*
X85012646Y-78501371D02*
X85250741Y-78501371D01*
X85250741Y-78501371D02*
X85345979Y-78548990D01*
X85345979Y-78548990D02*
X85393598Y-78596609D01*
X85393598Y-78596609D02*
X85441217Y-78691847D01*
X85441217Y-78691847D02*
X85441217Y-78929942D01*
X85441217Y-78929942D02*
X85393598Y-79025180D01*
X85393598Y-79025180D02*
X85345979Y-79072800D01*
X85345979Y-79072800D02*
X85250741Y-79120419D01*
X85250741Y-79120419D02*
X85012646Y-79120419D01*
X85012646Y-79120419D02*
X84917408Y-79072800D01*
X84917408Y-79072800D02*
X84869789Y-79025180D01*
X83361884Y-125094419D02*
X83361884Y-124094419D01*
X83361884Y-124094419D02*
X83599979Y-124094419D01*
X83599979Y-124094419D02*
X83742836Y-124142038D01*
X83742836Y-124142038D02*
X83838074Y-124237276D01*
X83838074Y-124237276D02*
X83885693Y-124332514D01*
X83885693Y-124332514D02*
X83933312Y-124522990D01*
X83933312Y-124522990D02*
X83933312Y-124665847D01*
X83933312Y-124665847D02*
X83885693Y-124856323D01*
X83885693Y-124856323D02*
X83838074Y-124951561D01*
X83838074Y-124951561D02*
X83742836Y-125046800D01*
X83742836Y-125046800D02*
X83599979Y-125094419D01*
X83599979Y-125094419D02*
X83361884Y-125094419D01*
X84314265Y-124189657D02*
X84361884Y-124142038D01*
X84361884Y-124142038D02*
X84457122Y-124094419D01*
X84457122Y-124094419D02*
X84695217Y-124094419D01*
X84695217Y-124094419D02*
X84790455Y-124142038D01*
X84790455Y-124142038D02*
X84838074Y-124189657D01*
X84838074Y-124189657D02*
X84885693Y-124284895D01*
X84885693Y-124284895D02*
X84885693Y-124380133D01*
X84885693Y-124380133D02*
X84838074Y-124522990D01*
X84838074Y-124522990D02*
X84266646Y-125094419D01*
X84266646Y-125094419D02*
X84885693Y-125094419D01*
X83361884Y-122300419D02*
X83361884Y-121300419D01*
X83361884Y-121300419D02*
X83599979Y-121300419D01*
X83599979Y-121300419D02*
X83742836Y-121348038D01*
X83742836Y-121348038D02*
X83838074Y-121443276D01*
X83838074Y-121443276D02*
X83885693Y-121538514D01*
X83885693Y-121538514D02*
X83933312Y-121728990D01*
X83933312Y-121728990D02*
X83933312Y-121871847D01*
X83933312Y-121871847D02*
X83885693Y-122062323D01*
X83885693Y-122062323D02*
X83838074Y-122157561D01*
X83838074Y-122157561D02*
X83742836Y-122252800D01*
X83742836Y-122252800D02*
X83599979Y-122300419D01*
X83599979Y-122300419D02*
X83361884Y-122300419D01*
X84885693Y-122300419D02*
X84314265Y-122300419D01*
X84599979Y-122300419D02*
X84599979Y-121300419D01*
X84599979Y-121300419D02*
X84504741Y-121443276D01*
X84504741Y-121443276D02*
X84409503Y-121538514D01*
X84409503Y-121538514D02*
X84314265Y-121586133D01*
X83314265Y-71214704D02*
X83790455Y-71214704D01*
X83219027Y-71500419D02*
X83552360Y-70500419D01*
X83552360Y-70500419D02*
X83885693Y-71500419D01*
X84409503Y-70500419D02*
X84504741Y-70500419D01*
X84504741Y-70500419D02*
X84599979Y-70548038D01*
X84599979Y-70548038D02*
X84647598Y-70595657D01*
X84647598Y-70595657D02*
X84695217Y-70690895D01*
X84695217Y-70690895D02*
X84742836Y-70881371D01*
X84742836Y-70881371D02*
X84742836Y-71119466D01*
X84742836Y-71119466D02*
X84695217Y-71309942D01*
X84695217Y-71309942D02*
X84647598Y-71405180D01*
X84647598Y-71405180D02*
X84599979Y-71452800D01*
X84599979Y-71452800D02*
X84504741Y-71500419D01*
X84504741Y-71500419D02*
X84409503Y-71500419D01*
X84409503Y-71500419D02*
X84314265Y-71452800D01*
X84314265Y-71452800D02*
X84266646Y-71405180D01*
X84266646Y-71405180D02*
X84219027Y-71309942D01*
X84219027Y-71309942D02*
X84171408Y-71119466D01*
X84171408Y-71119466D02*
X84171408Y-70881371D01*
X84171408Y-70881371D02*
X84219027Y-70690895D01*
X84219027Y-70690895D02*
X84266646Y-70595657D01*
X84266646Y-70595657D02*
X84314265Y-70548038D01*
X84314265Y-70548038D02*
X84409503Y-70500419D01*
X85314265Y-70928990D02*
X85219027Y-70881371D01*
X85219027Y-70881371D02*
X85171408Y-70833752D01*
X85171408Y-70833752D02*
X85123789Y-70738514D01*
X85123789Y-70738514D02*
X85123789Y-70690895D01*
X85123789Y-70690895D02*
X85171408Y-70595657D01*
X85171408Y-70595657D02*
X85219027Y-70548038D01*
X85219027Y-70548038D02*
X85314265Y-70500419D01*
X85314265Y-70500419D02*
X85504741Y-70500419D01*
X85504741Y-70500419D02*
X85599979Y-70548038D01*
X85599979Y-70548038D02*
X85647598Y-70595657D01*
X85647598Y-70595657D02*
X85695217Y-70690895D01*
X85695217Y-70690895D02*
X85695217Y-70738514D01*
X85695217Y-70738514D02*
X85647598Y-70833752D01*
X85647598Y-70833752D02*
X85599979Y-70881371D01*
X85599979Y-70881371D02*
X85504741Y-70928990D01*
X85504741Y-70928990D02*
X85314265Y-70928990D01*
X85314265Y-70928990D02*
X85219027Y-70976609D01*
X85219027Y-70976609D02*
X85171408Y-71024228D01*
X85171408Y-71024228D02*
X85123789Y-71119466D01*
X85123789Y-71119466D02*
X85123789Y-71309942D01*
X85123789Y-71309942D02*
X85171408Y-71405180D01*
X85171408Y-71405180D02*
X85219027Y-71452800D01*
X85219027Y-71452800D02*
X85314265Y-71500419D01*
X85314265Y-71500419D02*
X85504741Y-71500419D01*
X85504741Y-71500419D02*
X85599979Y-71452800D01*
X85599979Y-71452800D02*
X85647598Y-71405180D01*
X85647598Y-71405180D02*
X85695217Y-71309942D01*
X85695217Y-71309942D02*
X85695217Y-71119466D01*
X85695217Y-71119466D02*
X85647598Y-71024228D01*
X85647598Y-71024228D02*
X85599979Y-70976609D01*
X85599979Y-70976609D02*
X85504741Y-70928990D01*
X83060265Y-81374704D02*
X83536455Y-81374704D01*
X82965027Y-81660419D02*
X83298360Y-80660419D01*
X83298360Y-80660419D02*
X83631693Y-81660419D01*
X84155503Y-80660419D02*
X84250741Y-80660419D01*
X84250741Y-80660419D02*
X84345979Y-80708038D01*
X84345979Y-80708038D02*
X84393598Y-80755657D01*
X84393598Y-80755657D02*
X84441217Y-80850895D01*
X84441217Y-80850895D02*
X84488836Y-81041371D01*
X84488836Y-81041371D02*
X84488836Y-81279466D01*
X84488836Y-81279466D02*
X84441217Y-81469942D01*
X84441217Y-81469942D02*
X84393598Y-81565180D01*
X84393598Y-81565180D02*
X84345979Y-81612800D01*
X84345979Y-81612800D02*
X84250741Y-81660419D01*
X84250741Y-81660419D02*
X84155503Y-81660419D01*
X84155503Y-81660419D02*
X84060265Y-81612800D01*
X84060265Y-81612800D02*
X84012646Y-81565180D01*
X84012646Y-81565180D02*
X83965027Y-81469942D01*
X83965027Y-81469942D02*
X83917408Y-81279466D01*
X83917408Y-81279466D02*
X83917408Y-81041371D01*
X83917408Y-81041371D02*
X83965027Y-80850895D01*
X83965027Y-80850895D02*
X84012646Y-80755657D01*
X84012646Y-80755657D02*
X84060265Y-80708038D01*
X84060265Y-80708038D02*
X84155503Y-80660419D01*
X85345979Y-80993752D02*
X85345979Y-81660419D01*
X85107884Y-80612800D02*
X84869789Y-81327085D01*
X84869789Y-81327085D02*
X85488836Y-81327085D01*
X83314265Y-58514704D02*
X83790455Y-58514704D01*
X83219027Y-58800419D02*
X83552360Y-57800419D01*
X83552360Y-57800419D02*
X83885693Y-58800419D01*
X84742836Y-58800419D02*
X84171408Y-58800419D01*
X84457122Y-58800419D02*
X84457122Y-57800419D01*
X84457122Y-57800419D02*
X84361884Y-57943276D01*
X84361884Y-57943276D02*
X84266646Y-58038514D01*
X84266646Y-58038514D02*
X84171408Y-58086133D01*
X85076170Y-57800419D02*
X85695217Y-57800419D01*
X85695217Y-57800419D02*
X85361884Y-58181371D01*
X85361884Y-58181371D02*
X85504741Y-58181371D01*
X85504741Y-58181371D02*
X85599979Y-58228990D01*
X85599979Y-58228990D02*
X85647598Y-58276609D01*
X85647598Y-58276609D02*
X85695217Y-58371847D01*
X85695217Y-58371847D02*
X85695217Y-58609942D01*
X85695217Y-58609942D02*
X85647598Y-58705180D01*
X85647598Y-58705180D02*
X85599979Y-58752800D01*
X85599979Y-58752800D02*
X85504741Y-58800419D01*
X85504741Y-58800419D02*
X85219027Y-58800419D01*
X85219027Y-58800419D02*
X85123789Y-58752800D01*
X85123789Y-58752800D02*
X85076170Y-58705180D01*
X83822169Y-111092800D02*
X82965027Y-112378514D01*
X84060265Y-111140419D02*
X84298360Y-112140419D01*
X84298360Y-112140419D02*
X84488836Y-111426133D01*
X84488836Y-111426133D02*
X84679312Y-112140419D01*
X84679312Y-112140419D02*
X84917408Y-111140419D01*
X85869788Y-112140419D02*
X85536455Y-111664228D01*
X85298360Y-112140419D02*
X85298360Y-111140419D01*
X85298360Y-111140419D02*
X85679312Y-111140419D01*
X85679312Y-111140419D02*
X85774550Y-111188038D01*
X85774550Y-111188038D02*
X85822169Y-111235657D01*
X85822169Y-111235657D02*
X85869788Y-111330895D01*
X85869788Y-111330895D02*
X85869788Y-111473752D01*
X85869788Y-111473752D02*
X85822169Y-111568990D01*
X85822169Y-111568990D02*
X85774550Y-111616609D01*
X85774550Y-111616609D02*
X85679312Y-111664228D01*
X85679312Y-111664228D02*
X85298360Y-111664228D01*
X83060265Y-88994704D02*
X83536455Y-88994704D01*
X82965027Y-89280419D02*
X83298360Y-88280419D01*
X83298360Y-88280419D02*
X83631693Y-89280419D01*
X84155503Y-88280419D02*
X84250741Y-88280419D01*
X84250741Y-88280419D02*
X84345979Y-88328038D01*
X84345979Y-88328038D02*
X84393598Y-88375657D01*
X84393598Y-88375657D02*
X84441217Y-88470895D01*
X84441217Y-88470895D02*
X84488836Y-88661371D01*
X84488836Y-88661371D02*
X84488836Y-88899466D01*
X84488836Y-88899466D02*
X84441217Y-89089942D01*
X84441217Y-89089942D02*
X84393598Y-89185180D01*
X84393598Y-89185180D02*
X84345979Y-89232800D01*
X84345979Y-89232800D02*
X84250741Y-89280419D01*
X84250741Y-89280419D02*
X84155503Y-89280419D01*
X84155503Y-89280419D02*
X84060265Y-89232800D01*
X84060265Y-89232800D02*
X84012646Y-89185180D01*
X84012646Y-89185180D02*
X83965027Y-89089942D01*
X83965027Y-89089942D02*
X83917408Y-88899466D01*
X83917408Y-88899466D02*
X83917408Y-88661371D01*
X83917408Y-88661371D02*
X83965027Y-88470895D01*
X83965027Y-88470895D02*
X84012646Y-88375657D01*
X84012646Y-88375657D02*
X84060265Y-88328038D01*
X84060265Y-88328038D02*
X84155503Y-88280419D01*
X85441217Y-89280419D02*
X84869789Y-89280419D01*
X85155503Y-89280419D02*
X85155503Y-88280419D01*
X85155503Y-88280419D02*
X85060265Y-88423276D01*
X85060265Y-88423276D02*
X84965027Y-88518514D01*
X84965027Y-88518514D02*
X84869789Y-88566133D01*
X83822169Y-108552800D02*
X82965027Y-109838514D01*
X84155503Y-109600419D02*
X84155503Y-108600419D01*
X84155503Y-108600419D02*
X84488836Y-109314704D01*
X84488836Y-109314704D02*
X84822169Y-108600419D01*
X84822169Y-108600419D02*
X84822169Y-109600419D01*
X85869788Y-109600419D02*
X85536455Y-109124228D01*
X85298360Y-109600419D02*
X85298360Y-108600419D01*
X85298360Y-108600419D02*
X85679312Y-108600419D01*
X85679312Y-108600419D02*
X85774550Y-108648038D01*
X85774550Y-108648038D02*
X85822169Y-108695657D01*
X85822169Y-108695657D02*
X85869788Y-108790895D01*
X85869788Y-108790895D02*
X85869788Y-108933752D01*
X85869788Y-108933752D02*
X85822169Y-109028990D01*
X85822169Y-109028990D02*
X85774550Y-109076609D01*
X85774550Y-109076609D02*
X85679312Y-109124228D01*
X85679312Y-109124228D02*
X85298360Y-109124228D01*
X86298360Y-109076609D02*
X86631693Y-109076609D01*
X86774550Y-109600419D02*
X86298360Y-109600419D01*
X86298360Y-109600419D02*
X86298360Y-108600419D01*
X86298360Y-108600419D02*
X86774550Y-108600419D01*
X87869788Y-109695657D02*
X87774550Y-109648038D01*
X87774550Y-109648038D02*
X87679312Y-109552800D01*
X87679312Y-109552800D02*
X87536455Y-109409942D01*
X87536455Y-109409942D02*
X87441217Y-109362323D01*
X87441217Y-109362323D02*
X87345979Y-109362323D01*
X87393598Y-109600419D02*
X87298360Y-109552800D01*
X87298360Y-109552800D02*
X87203122Y-109457561D01*
X87203122Y-109457561D02*
X87155503Y-109267085D01*
X87155503Y-109267085D02*
X87155503Y-108933752D01*
X87155503Y-108933752D02*
X87203122Y-108743276D01*
X87203122Y-108743276D02*
X87298360Y-108648038D01*
X87298360Y-108648038D02*
X87393598Y-108600419D01*
X87393598Y-108600419D02*
X87584074Y-108600419D01*
X87584074Y-108600419D02*
X87679312Y-108648038D01*
X87679312Y-108648038D02*
X87774550Y-108743276D01*
X87774550Y-108743276D02*
X87822169Y-108933752D01*
X87822169Y-108933752D02*
X87822169Y-109267085D01*
X87822169Y-109267085D02*
X87774550Y-109457561D01*
X87774550Y-109457561D02*
X87679312Y-109552800D01*
X87679312Y-109552800D02*
X87584074Y-109600419D01*
X87584074Y-109600419D02*
X87393598Y-109600419D01*
X83060265Y-86454704D02*
X83536455Y-86454704D01*
X82965027Y-86740419D02*
X83298360Y-85740419D01*
X83298360Y-85740419D02*
X83631693Y-86740419D01*
X84155503Y-85740419D02*
X84250741Y-85740419D01*
X84250741Y-85740419D02*
X84345979Y-85788038D01*
X84345979Y-85788038D02*
X84393598Y-85835657D01*
X84393598Y-85835657D02*
X84441217Y-85930895D01*
X84441217Y-85930895D02*
X84488836Y-86121371D01*
X84488836Y-86121371D02*
X84488836Y-86359466D01*
X84488836Y-86359466D02*
X84441217Y-86549942D01*
X84441217Y-86549942D02*
X84393598Y-86645180D01*
X84393598Y-86645180D02*
X84345979Y-86692800D01*
X84345979Y-86692800D02*
X84250741Y-86740419D01*
X84250741Y-86740419D02*
X84155503Y-86740419D01*
X84155503Y-86740419D02*
X84060265Y-86692800D01*
X84060265Y-86692800D02*
X84012646Y-86645180D01*
X84012646Y-86645180D02*
X83965027Y-86549942D01*
X83965027Y-86549942D02*
X83917408Y-86359466D01*
X83917408Y-86359466D02*
X83917408Y-86121371D01*
X83917408Y-86121371D02*
X83965027Y-85930895D01*
X83965027Y-85930895D02*
X84012646Y-85835657D01*
X84012646Y-85835657D02*
X84060265Y-85788038D01*
X84060265Y-85788038D02*
X84155503Y-85740419D01*
X84869789Y-85835657D02*
X84917408Y-85788038D01*
X84917408Y-85788038D02*
X85012646Y-85740419D01*
X85012646Y-85740419D02*
X85250741Y-85740419D01*
X85250741Y-85740419D02*
X85345979Y-85788038D01*
X85345979Y-85788038D02*
X85393598Y-85835657D01*
X85393598Y-85835657D02*
X85441217Y-85930895D01*
X85441217Y-85930895D02*
X85441217Y-86026133D01*
X85441217Y-86026133D02*
X85393598Y-86168990D01*
X85393598Y-86168990D02*
X84822170Y-86740419D01*
X84822170Y-86740419D02*
X85441217Y-86740419D01*
X83314265Y-55974704D02*
X83790455Y-55974704D01*
X83219027Y-56260419D02*
X83552360Y-55260419D01*
X83552360Y-55260419D02*
X83885693Y-56260419D01*
X84742836Y-56260419D02*
X84171408Y-56260419D01*
X84457122Y-56260419D02*
X84457122Y-55260419D01*
X84457122Y-55260419D02*
X84361884Y-55403276D01*
X84361884Y-55403276D02*
X84266646Y-55498514D01*
X84266646Y-55498514D02*
X84171408Y-55546133D01*
X85599979Y-55593752D02*
X85599979Y-56260419D01*
X85361884Y-55212800D02*
X85123789Y-55927085D01*
X85123789Y-55927085D02*
X85742836Y-55927085D01*
X83822169Y-116172800D02*
X82965027Y-117458514D01*
X84155503Y-117220419D02*
X84155503Y-116220419D01*
X84822169Y-116220419D02*
X85012645Y-116220419D01*
X85012645Y-116220419D02*
X85107883Y-116268038D01*
X85107883Y-116268038D02*
X85203121Y-116363276D01*
X85203121Y-116363276D02*
X85250740Y-116553752D01*
X85250740Y-116553752D02*
X85250740Y-116887085D01*
X85250740Y-116887085D02*
X85203121Y-117077561D01*
X85203121Y-117077561D02*
X85107883Y-117172800D01*
X85107883Y-117172800D02*
X85012645Y-117220419D01*
X85012645Y-117220419D02*
X84822169Y-117220419D01*
X84822169Y-117220419D02*
X84726931Y-117172800D01*
X84726931Y-117172800D02*
X84631693Y-117077561D01*
X84631693Y-117077561D02*
X84584074Y-116887085D01*
X84584074Y-116887085D02*
X84584074Y-116553752D01*
X84584074Y-116553752D02*
X84631693Y-116363276D01*
X84631693Y-116363276D02*
X84726931Y-116268038D01*
X84726931Y-116268038D02*
X84822169Y-116220419D01*
X86250740Y-117220419D02*
X85917407Y-116744228D01*
X85679312Y-117220419D02*
X85679312Y-116220419D01*
X85679312Y-116220419D02*
X86060264Y-116220419D01*
X86060264Y-116220419D02*
X86155502Y-116268038D01*
X86155502Y-116268038D02*
X86203121Y-116315657D01*
X86203121Y-116315657D02*
X86250740Y-116410895D01*
X86250740Y-116410895D02*
X86250740Y-116553752D01*
X86250740Y-116553752D02*
X86203121Y-116648990D01*
X86203121Y-116648990D02*
X86155502Y-116696609D01*
X86155502Y-116696609D02*
X86060264Y-116744228D01*
X86060264Y-116744228D02*
X85679312Y-116744228D01*
X87345978Y-117315657D02*
X87250740Y-117268038D01*
X87250740Y-117268038D02*
X87155502Y-117172800D01*
X87155502Y-117172800D02*
X87012645Y-117029942D01*
X87012645Y-117029942D02*
X86917407Y-116982323D01*
X86917407Y-116982323D02*
X86822169Y-116982323D01*
X86869788Y-117220419D02*
X86774550Y-117172800D01*
X86774550Y-117172800D02*
X86679312Y-117077561D01*
X86679312Y-117077561D02*
X86631693Y-116887085D01*
X86631693Y-116887085D02*
X86631693Y-116553752D01*
X86631693Y-116553752D02*
X86679312Y-116363276D01*
X86679312Y-116363276D02*
X86774550Y-116268038D01*
X86774550Y-116268038D02*
X86869788Y-116220419D01*
X86869788Y-116220419D02*
X87060264Y-116220419D01*
X87060264Y-116220419D02*
X87155502Y-116268038D01*
X87155502Y-116268038D02*
X87250740Y-116363276D01*
X87250740Y-116363276D02*
X87298359Y-116553752D01*
X87298359Y-116553752D02*
X87298359Y-116887085D01*
X87298359Y-116887085D02*
X87250740Y-117077561D01*
X87250740Y-117077561D02*
X87155502Y-117172800D01*
X87155502Y-117172800D02*
X87060264Y-117220419D01*
X87060264Y-117220419D02*
X86869788Y-117220419D01*
X83568265Y-52926704D02*
X84044455Y-52926704D01*
X83473027Y-53212419D02*
X83806360Y-52212419D01*
X83806360Y-52212419D02*
X84139693Y-53212419D01*
X84996836Y-53212419D02*
X84425408Y-53212419D01*
X84711122Y-53212419D02*
X84711122Y-52212419D01*
X84711122Y-52212419D02*
X84615884Y-52355276D01*
X84615884Y-52355276D02*
X84520646Y-52450514D01*
X84520646Y-52450514D02*
X84425408Y-52498133D01*
X85901598Y-52212419D02*
X85425408Y-52212419D01*
X85425408Y-52212419D02*
X85377789Y-52688609D01*
X85377789Y-52688609D02*
X85425408Y-52640990D01*
X85425408Y-52640990D02*
X85520646Y-52593371D01*
X85520646Y-52593371D02*
X85758741Y-52593371D01*
X85758741Y-52593371D02*
X85853979Y-52640990D01*
X85853979Y-52640990D02*
X85901598Y-52688609D01*
X85901598Y-52688609D02*
X85949217Y-52783847D01*
X85949217Y-52783847D02*
X85949217Y-53021942D01*
X85949217Y-53021942D02*
X85901598Y-53117180D01*
X85901598Y-53117180D02*
X85853979Y-53164800D01*
X85853979Y-53164800D02*
X85758741Y-53212419D01*
X85758741Y-53212419D02*
X85520646Y-53212419D01*
X85520646Y-53212419D02*
X85425408Y-53164800D01*
X85425408Y-53164800D02*
X85377789Y-53117180D01*
X83822169Y-106012800D02*
X82965027Y-107298514D01*
X84155503Y-107060419D02*
X84155503Y-106060419D01*
X84631693Y-107060419D02*
X84631693Y-106060419D01*
X84631693Y-106060419D02*
X85203121Y-107060419D01*
X85203121Y-107060419D02*
X85203121Y-106060419D01*
X85536455Y-106060419D02*
X86107883Y-106060419D01*
X85822169Y-107060419D02*
X85822169Y-106060419D01*
X83361884Y-119760419D02*
X83361884Y-118760419D01*
X83361884Y-118760419D02*
X83599979Y-118760419D01*
X83599979Y-118760419D02*
X83742836Y-118808038D01*
X83742836Y-118808038D02*
X83838074Y-118903276D01*
X83838074Y-118903276D02*
X83885693Y-118998514D01*
X83885693Y-118998514D02*
X83933312Y-119188990D01*
X83933312Y-119188990D02*
X83933312Y-119331847D01*
X83933312Y-119331847D02*
X83885693Y-119522323D01*
X83885693Y-119522323D02*
X83838074Y-119617561D01*
X83838074Y-119617561D02*
X83742836Y-119712800D01*
X83742836Y-119712800D02*
X83599979Y-119760419D01*
X83599979Y-119760419D02*
X83361884Y-119760419D01*
X84552360Y-118760419D02*
X84647598Y-118760419D01*
X84647598Y-118760419D02*
X84742836Y-118808038D01*
X84742836Y-118808038D02*
X84790455Y-118855657D01*
X84790455Y-118855657D02*
X84838074Y-118950895D01*
X84838074Y-118950895D02*
X84885693Y-119141371D01*
X84885693Y-119141371D02*
X84885693Y-119379466D01*
X84885693Y-119379466D02*
X84838074Y-119569942D01*
X84838074Y-119569942D02*
X84790455Y-119665180D01*
X84790455Y-119665180D02*
X84742836Y-119712800D01*
X84742836Y-119712800D02*
X84647598Y-119760419D01*
X84647598Y-119760419D02*
X84552360Y-119760419D01*
X84552360Y-119760419D02*
X84457122Y-119712800D01*
X84457122Y-119712800D02*
X84409503Y-119665180D01*
X84409503Y-119665180D02*
X84361884Y-119569942D01*
X84361884Y-119569942D02*
X84314265Y-119379466D01*
X84314265Y-119379466D02*
X84314265Y-119141371D01*
X84314265Y-119141371D02*
X84361884Y-118950895D01*
X84361884Y-118950895D02*
X84409503Y-118855657D01*
X84409503Y-118855657D02*
X84457122Y-118808038D01*
X84457122Y-118808038D02*
X84552360Y-118760419D01*
X83679312Y-104425180D02*
X83631693Y-104472800D01*
X83631693Y-104472800D02*
X83488836Y-104520419D01*
X83488836Y-104520419D02*
X83393598Y-104520419D01*
X83393598Y-104520419D02*
X83250741Y-104472800D01*
X83250741Y-104472800D02*
X83155503Y-104377561D01*
X83155503Y-104377561D02*
X83107884Y-104282323D01*
X83107884Y-104282323D02*
X83060265Y-104091847D01*
X83060265Y-104091847D02*
X83060265Y-103948990D01*
X83060265Y-103948990D02*
X83107884Y-103758514D01*
X83107884Y-103758514D02*
X83155503Y-103663276D01*
X83155503Y-103663276D02*
X83250741Y-103568038D01*
X83250741Y-103568038D02*
X83393598Y-103520419D01*
X83393598Y-103520419D02*
X83488836Y-103520419D01*
X83488836Y-103520419D02*
X83631693Y-103568038D01*
X83631693Y-103568038D02*
X83679312Y-103615657D01*
X84584074Y-104520419D02*
X84107884Y-104520419D01*
X84107884Y-104520419D02*
X84107884Y-103520419D01*
X84917408Y-104520419D02*
X84917408Y-103520419D01*
X85488836Y-104520419D02*
X85060265Y-103948990D01*
X85488836Y-103520419D02*
X84917408Y-104091847D01*
X83822169Y-113632800D02*
X82965027Y-114918514D01*
X84726931Y-114680419D02*
X84393598Y-114204228D01*
X84155503Y-114680419D02*
X84155503Y-113680419D01*
X84155503Y-113680419D02*
X84536455Y-113680419D01*
X84536455Y-113680419D02*
X84631693Y-113728038D01*
X84631693Y-113728038D02*
X84679312Y-113775657D01*
X84679312Y-113775657D02*
X84726931Y-113870895D01*
X84726931Y-113870895D02*
X84726931Y-114013752D01*
X84726931Y-114013752D02*
X84679312Y-114108990D01*
X84679312Y-114108990D02*
X84631693Y-114156609D01*
X84631693Y-114156609D02*
X84536455Y-114204228D01*
X84536455Y-114204228D02*
X84155503Y-114204228D01*
X85155503Y-114680419D02*
X85155503Y-113680419D01*
X85155503Y-113680419D02*
X85393598Y-113680419D01*
X85393598Y-113680419D02*
X85536455Y-113728038D01*
X85536455Y-113728038D02*
X85631693Y-113823276D01*
X85631693Y-113823276D02*
X85679312Y-113918514D01*
X85679312Y-113918514D02*
X85726931Y-114108990D01*
X85726931Y-114108990D02*
X85726931Y-114251847D01*
X85726931Y-114251847D02*
X85679312Y-114442323D01*
X85679312Y-114442323D02*
X85631693Y-114537561D01*
X85631693Y-114537561D02*
X85536455Y-114632800D01*
X85536455Y-114632800D02*
X85393598Y-114680419D01*
X85393598Y-114680419D02*
X85155503Y-114680419D01*
X83060265Y-83914704D02*
X83536455Y-83914704D01*
X82965027Y-84200419D02*
X83298360Y-83200419D01*
X83298360Y-83200419D02*
X83631693Y-84200419D01*
X84155503Y-83200419D02*
X84250741Y-83200419D01*
X84250741Y-83200419D02*
X84345979Y-83248038D01*
X84345979Y-83248038D02*
X84393598Y-83295657D01*
X84393598Y-83295657D02*
X84441217Y-83390895D01*
X84441217Y-83390895D02*
X84488836Y-83581371D01*
X84488836Y-83581371D02*
X84488836Y-83819466D01*
X84488836Y-83819466D02*
X84441217Y-84009942D01*
X84441217Y-84009942D02*
X84393598Y-84105180D01*
X84393598Y-84105180D02*
X84345979Y-84152800D01*
X84345979Y-84152800D02*
X84250741Y-84200419D01*
X84250741Y-84200419D02*
X84155503Y-84200419D01*
X84155503Y-84200419D02*
X84060265Y-84152800D01*
X84060265Y-84152800D02*
X84012646Y-84105180D01*
X84012646Y-84105180D02*
X83965027Y-84009942D01*
X83965027Y-84009942D02*
X83917408Y-83819466D01*
X83917408Y-83819466D02*
X83917408Y-83581371D01*
X83917408Y-83581371D02*
X83965027Y-83390895D01*
X83965027Y-83390895D02*
X84012646Y-83295657D01*
X84012646Y-83295657D02*
X84060265Y-83248038D01*
X84060265Y-83248038D02*
X84155503Y-83200419D01*
X84822170Y-83200419D02*
X85441217Y-83200419D01*
X85441217Y-83200419D02*
X85107884Y-83581371D01*
X85107884Y-83581371D02*
X85250741Y-83581371D01*
X85250741Y-83581371D02*
X85345979Y-83628990D01*
X85345979Y-83628990D02*
X85393598Y-83676609D01*
X85393598Y-83676609D02*
X85441217Y-83771847D01*
X85441217Y-83771847D02*
X85441217Y-84009942D01*
X85441217Y-84009942D02*
X85393598Y-84105180D01*
X85393598Y-84105180D02*
X85345979Y-84152800D01*
X85345979Y-84152800D02*
X85250741Y-84200419D01*
X85250741Y-84200419D02*
X84965027Y-84200419D01*
X84965027Y-84200419D02*
X84869789Y-84152800D01*
X84869789Y-84152800D02*
X84822170Y-84105180D01*
X83361884Y-137540419D02*
X83361884Y-136540419D01*
X83361884Y-136540419D02*
X83599979Y-136540419D01*
X83599979Y-136540419D02*
X83742836Y-136588038D01*
X83742836Y-136588038D02*
X83838074Y-136683276D01*
X83838074Y-136683276D02*
X83885693Y-136778514D01*
X83885693Y-136778514D02*
X83933312Y-136968990D01*
X83933312Y-136968990D02*
X83933312Y-137111847D01*
X83933312Y-137111847D02*
X83885693Y-137302323D01*
X83885693Y-137302323D02*
X83838074Y-137397561D01*
X83838074Y-137397561D02*
X83742836Y-137492800D01*
X83742836Y-137492800D02*
X83599979Y-137540419D01*
X83599979Y-137540419D02*
X83361884Y-137540419D01*
X84266646Y-136540419D02*
X84933312Y-136540419D01*
X84933312Y-136540419D02*
X84504741Y-137540419D01*
X83361884Y-132460419D02*
X83361884Y-131460419D01*
X83361884Y-131460419D02*
X83599979Y-131460419D01*
X83599979Y-131460419D02*
X83742836Y-131508038D01*
X83742836Y-131508038D02*
X83838074Y-131603276D01*
X83838074Y-131603276D02*
X83885693Y-131698514D01*
X83885693Y-131698514D02*
X83933312Y-131888990D01*
X83933312Y-131888990D02*
X83933312Y-132031847D01*
X83933312Y-132031847D02*
X83885693Y-132222323D01*
X83885693Y-132222323D02*
X83838074Y-132317561D01*
X83838074Y-132317561D02*
X83742836Y-132412800D01*
X83742836Y-132412800D02*
X83599979Y-132460419D01*
X83599979Y-132460419D02*
X83361884Y-132460419D01*
X84838074Y-131460419D02*
X84361884Y-131460419D01*
X84361884Y-131460419D02*
X84314265Y-131936609D01*
X84314265Y-131936609D02*
X84361884Y-131888990D01*
X84361884Y-131888990D02*
X84457122Y-131841371D01*
X84457122Y-131841371D02*
X84695217Y-131841371D01*
X84695217Y-131841371D02*
X84790455Y-131888990D01*
X84790455Y-131888990D02*
X84838074Y-131936609D01*
X84838074Y-131936609D02*
X84885693Y-132031847D01*
X84885693Y-132031847D02*
X84885693Y-132269942D01*
X84885693Y-132269942D02*
X84838074Y-132365180D01*
X84838074Y-132365180D02*
X84790455Y-132412800D01*
X84790455Y-132412800D02*
X84695217Y-132460419D01*
X84695217Y-132460419D02*
X84457122Y-132460419D01*
X84457122Y-132460419D02*
X84361884Y-132412800D01*
X84361884Y-132412800D02*
X84314265Y-132365180D01*
X83060265Y-91534704D02*
X83536455Y-91534704D01*
X82965027Y-91820419D02*
X83298360Y-90820419D01*
X83298360Y-90820419D02*
X83631693Y-91820419D01*
X84155503Y-90820419D02*
X84250741Y-90820419D01*
X84250741Y-90820419D02*
X84345979Y-90868038D01*
X84345979Y-90868038D02*
X84393598Y-90915657D01*
X84393598Y-90915657D02*
X84441217Y-91010895D01*
X84441217Y-91010895D02*
X84488836Y-91201371D01*
X84488836Y-91201371D02*
X84488836Y-91439466D01*
X84488836Y-91439466D02*
X84441217Y-91629942D01*
X84441217Y-91629942D02*
X84393598Y-91725180D01*
X84393598Y-91725180D02*
X84345979Y-91772800D01*
X84345979Y-91772800D02*
X84250741Y-91820419D01*
X84250741Y-91820419D02*
X84155503Y-91820419D01*
X84155503Y-91820419D02*
X84060265Y-91772800D01*
X84060265Y-91772800D02*
X84012646Y-91725180D01*
X84012646Y-91725180D02*
X83965027Y-91629942D01*
X83965027Y-91629942D02*
X83917408Y-91439466D01*
X83917408Y-91439466D02*
X83917408Y-91201371D01*
X83917408Y-91201371D02*
X83965027Y-91010895D01*
X83965027Y-91010895D02*
X84012646Y-90915657D01*
X84012646Y-90915657D02*
X84060265Y-90868038D01*
X84060265Y-90868038D02*
X84155503Y-90820419D01*
X85107884Y-90820419D02*
X85203122Y-90820419D01*
X85203122Y-90820419D02*
X85298360Y-90868038D01*
X85298360Y-90868038D02*
X85345979Y-90915657D01*
X85345979Y-90915657D02*
X85393598Y-91010895D01*
X85393598Y-91010895D02*
X85441217Y-91201371D01*
X85441217Y-91201371D02*
X85441217Y-91439466D01*
X85441217Y-91439466D02*
X85393598Y-91629942D01*
X85393598Y-91629942D02*
X85345979Y-91725180D01*
X85345979Y-91725180D02*
X85298360Y-91772800D01*
X85298360Y-91772800D02*
X85203122Y-91820419D01*
X85203122Y-91820419D02*
X85107884Y-91820419D01*
X85107884Y-91820419D02*
X85012646Y-91772800D01*
X85012646Y-91772800D02*
X84965027Y-91725180D01*
X84965027Y-91725180D02*
X84917408Y-91629942D01*
X84917408Y-91629942D02*
X84869789Y-91439466D01*
X84869789Y-91439466D02*
X84869789Y-91201371D01*
X84869789Y-91201371D02*
X84917408Y-91010895D01*
X84917408Y-91010895D02*
X84965027Y-90915657D01*
X84965027Y-90915657D02*
X85012646Y-90868038D01*
X85012646Y-90868038D02*
X85107884Y-90820419D01*
X83314265Y-66134704D02*
X83790455Y-66134704D01*
X83219027Y-66420419D02*
X83552360Y-65420419D01*
X83552360Y-65420419D02*
X83885693Y-66420419D01*
X84742836Y-66420419D02*
X84171408Y-66420419D01*
X84457122Y-66420419D02*
X84457122Y-65420419D01*
X84457122Y-65420419D02*
X84361884Y-65563276D01*
X84361884Y-65563276D02*
X84266646Y-65658514D01*
X84266646Y-65658514D02*
X84171408Y-65706133D01*
X85361884Y-65420419D02*
X85457122Y-65420419D01*
X85457122Y-65420419D02*
X85552360Y-65468038D01*
X85552360Y-65468038D02*
X85599979Y-65515657D01*
X85599979Y-65515657D02*
X85647598Y-65610895D01*
X85647598Y-65610895D02*
X85695217Y-65801371D01*
X85695217Y-65801371D02*
X85695217Y-66039466D01*
X85695217Y-66039466D02*
X85647598Y-66229942D01*
X85647598Y-66229942D02*
X85599979Y-66325180D01*
X85599979Y-66325180D02*
X85552360Y-66372800D01*
X85552360Y-66372800D02*
X85457122Y-66420419D01*
X85457122Y-66420419D02*
X85361884Y-66420419D01*
X85361884Y-66420419D02*
X85266646Y-66372800D01*
X85266646Y-66372800D02*
X85219027Y-66325180D01*
X85219027Y-66325180D02*
X85171408Y-66229942D01*
X85171408Y-66229942D02*
X85123789Y-66039466D01*
X85123789Y-66039466D02*
X85123789Y-65801371D01*
X85123789Y-65801371D02*
X85171408Y-65610895D01*
X85171408Y-65610895D02*
X85219027Y-65515657D01*
X85219027Y-65515657D02*
X85266646Y-65468038D01*
X85266646Y-65468038D02*
X85361884Y-65420419D01*
X83314265Y-73754704D02*
X83790455Y-73754704D01*
X83219027Y-74040419D02*
X83552360Y-73040419D01*
X83552360Y-73040419D02*
X83885693Y-74040419D01*
X84409503Y-73040419D02*
X84504741Y-73040419D01*
X84504741Y-73040419D02*
X84599979Y-73088038D01*
X84599979Y-73088038D02*
X84647598Y-73135657D01*
X84647598Y-73135657D02*
X84695217Y-73230895D01*
X84695217Y-73230895D02*
X84742836Y-73421371D01*
X84742836Y-73421371D02*
X84742836Y-73659466D01*
X84742836Y-73659466D02*
X84695217Y-73849942D01*
X84695217Y-73849942D02*
X84647598Y-73945180D01*
X84647598Y-73945180D02*
X84599979Y-73992800D01*
X84599979Y-73992800D02*
X84504741Y-74040419D01*
X84504741Y-74040419D02*
X84409503Y-74040419D01*
X84409503Y-74040419D02*
X84314265Y-73992800D01*
X84314265Y-73992800D02*
X84266646Y-73945180D01*
X84266646Y-73945180D02*
X84219027Y-73849942D01*
X84219027Y-73849942D02*
X84171408Y-73659466D01*
X84171408Y-73659466D02*
X84171408Y-73421371D01*
X84171408Y-73421371D02*
X84219027Y-73230895D01*
X84219027Y-73230895D02*
X84266646Y-73135657D01*
X84266646Y-73135657D02*
X84314265Y-73088038D01*
X84314265Y-73088038D02*
X84409503Y-73040419D01*
X85076170Y-73040419D02*
X85742836Y-73040419D01*
X85742836Y-73040419D02*
X85314265Y-74040419D01*
X83314265Y-61054704D02*
X83790455Y-61054704D01*
X83219027Y-61340419D02*
X83552360Y-60340419D01*
X83552360Y-60340419D02*
X83885693Y-61340419D01*
X84742836Y-61340419D02*
X84171408Y-61340419D01*
X84457122Y-61340419D02*
X84457122Y-60340419D01*
X84457122Y-60340419D02*
X84361884Y-60483276D01*
X84361884Y-60483276D02*
X84266646Y-60578514D01*
X84266646Y-60578514D02*
X84171408Y-60626133D01*
X85123789Y-60435657D02*
X85171408Y-60388038D01*
X85171408Y-60388038D02*
X85266646Y-60340419D01*
X85266646Y-60340419D02*
X85504741Y-60340419D01*
X85504741Y-60340419D02*
X85599979Y-60388038D01*
X85599979Y-60388038D02*
X85647598Y-60435657D01*
X85647598Y-60435657D02*
X85695217Y-60530895D01*
X85695217Y-60530895D02*
X85695217Y-60626133D01*
X85695217Y-60626133D02*
X85647598Y-60768990D01*
X85647598Y-60768990D02*
X85076170Y-61340419D01*
X85076170Y-61340419D02*
X85695217Y-61340419D01*
X83361884Y-99694419D02*
X83361884Y-98694419D01*
X83361884Y-98694419D02*
X83695217Y-99408704D01*
X83695217Y-99408704D02*
X84028550Y-98694419D01*
X84028550Y-98694419D02*
X84028550Y-99694419D01*
X85028550Y-99694419D02*
X84457122Y-99694419D01*
X84742836Y-99694419D02*
X84742836Y-98694419D01*
X84742836Y-98694419D02*
X84647598Y-98837276D01*
X84647598Y-98837276D02*
X84552360Y-98932514D01*
X84552360Y-98932514D02*
X84457122Y-98980133D01*
X83361884Y-130174419D02*
X83361884Y-129174419D01*
X83361884Y-129174419D02*
X83599979Y-129174419D01*
X83599979Y-129174419D02*
X83742836Y-129222038D01*
X83742836Y-129222038D02*
X83838074Y-129317276D01*
X83838074Y-129317276D02*
X83885693Y-129412514D01*
X83885693Y-129412514D02*
X83933312Y-129602990D01*
X83933312Y-129602990D02*
X83933312Y-129745847D01*
X83933312Y-129745847D02*
X83885693Y-129936323D01*
X83885693Y-129936323D02*
X83838074Y-130031561D01*
X83838074Y-130031561D02*
X83742836Y-130126800D01*
X83742836Y-130126800D02*
X83599979Y-130174419D01*
X83599979Y-130174419D02*
X83361884Y-130174419D01*
X84790455Y-129507752D02*
X84790455Y-130174419D01*
X84552360Y-129126800D02*
X84314265Y-129841085D01*
X84314265Y-129841085D02*
X84933312Y-129841085D01*
X83060265Y-76294704D02*
X83536455Y-76294704D01*
X82965027Y-76580419D02*
X83298360Y-75580419D01*
X83298360Y-75580419D02*
X83631693Y-76580419D01*
X84155503Y-75580419D02*
X84250741Y-75580419D01*
X84250741Y-75580419D02*
X84345979Y-75628038D01*
X84345979Y-75628038D02*
X84393598Y-75675657D01*
X84393598Y-75675657D02*
X84441217Y-75770895D01*
X84441217Y-75770895D02*
X84488836Y-75961371D01*
X84488836Y-75961371D02*
X84488836Y-76199466D01*
X84488836Y-76199466D02*
X84441217Y-76389942D01*
X84441217Y-76389942D02*
X84393598Y-76485180D01*
X84393598Y-76485180D02*
X84345979Y-76532800D01*
X84345979Y-76532800D02*
X84250741Y-76580419D01*
X84250741Y-76580419D02*
X84155503Y-76580419D01*
X84155503Y-76580419D02*
X84060265Y-76532800D01*
X84060265Y-76532800D02*
X84012646Y-76485180D01*
X84012646Y-76485180D02*
X83965027Y-76389942D01*
X83965027Y-76389942D02*
X83917408Y-76199466D01*
X83917408Y-76199466D02*
X83917408Y-75961371D01*
X83917408Y-75961371D02*
X83965027Y-75770895D01*
X83965027Y-75770895D02*
X84012646Y-75675657D01*
X84012646Y-75675657D02*
X84060265Y-75628038D01*
X84060265Y-75628038D02*
X84155503Y-75580419D01*
X85345979Y-75580419D02*
X85155503Y-75580419D01*
X85155503Y-75580419D02*
X85060265Y-75628038D01*
X85060265Y-75628038D02*
X85012646Y-75675657D01*
X85012646Y-75675657D02*
X84917408Y-75818514D01*
X84917408Y-75818514D02*
X84869789Y-76008990D01*
X84869789Y-76008990D02*
X84869789Y-76389942D01*
X84869789Y-76389942D02*
X84917408Y-76485180D01*
X84917408Y-76485180D02*
X84965027Y-76532800D01*
X84965027Y-76532800D02*
X85060265Y-76580419D01*
X85060265Y-76580419D02*
X85250741Y-76580419D01*
X85250741Y-76580419D02*
X85345979Y-76532800D01*
X85345979Y-76532800D02*
X85393598Y-76485180D01*
X85393598Y-76485180D02*
X85441217Y-76389942D01*
X85441217Y-76389942D02*
X85441217Y-76151847D01*
X85441217Y-76151847D02*
X85393598Y-76056609D01*
X85393598Y-76056609D02*
X85345979Y-76008990D01*
X85345979Y-76008990D02*
X85250741Y-75961371D01*
X85250741Y-75961371D02*
X85060265Y-75961371D01*
X85060265Y-75961371D02*
X84965027Y-76008990D01*
X84965027Y-76008990D02*
X84917408Y-76056609D01*
X84917408Y-76056609D02*
X84869789Y-76151847D01*
X83361884Y-135000419D02*
X83361884Y-134000419D01*
X83361884Y-134000419D02*
X83599979Y-134000419D01*
X83599979Y-134000419D02*
X83742836Y-134048038D01*
X83742836Y-134048038D02*
X83838074Y-134143276D01*
X83838074Y-134143276D02*
X83885693Y-134238514D01*
X83885693Y-134238514D02*
X83933312Y-134428990D01*
X83933312Y-134428990D02*
X83933312Y-134571847D01*
X83933312Y-134571847D02*
X83885693Y-134762323D01*
X83885693Y-134762323D02*
X83838074Y-134857561D01*
X83838074Y-134857561D02*
X83742836Y-134952800D01*
X83742836Y-134952800D02*
X83599979Y-135000419D01*
X83599979Y-135000419D02*
X83361884Y-135000419D01*
X84790455Y-134000419D02*
X84599979Y-134000419D01*
X84599979Y-134000419D02*
X84504741Y-134048038D01*
X84504741Y-134048038D02*
X84457122Y-134095657D01*
X84457122Y-134095657D02*
X84361884Y-134238514D01*
X84361884Y-134238514D02*
X84314265Y-134428990D01*
X84314265Y-134428990D02*
X84314265Y-134809942D01*
X84314265Y-134809942D02*
X84361884Y-134905180D01*
X84361884Y-134905180D02*
X84409503Y-134952800D01*
X84409503Y-134952800D02*
X84504741Y-135000419D01*
X84504741Y-135000419D02*
X84695217Y-135000419D01*
X84695217Y-135000419D02*
X84790455Y-134952800D01*
X84790455Y-134952800D02*
X84838074Y-134905180D01*
X84838074Y-134905180D02*
X84885693Y-134809942D01*
X84885693Y-134809942D02*
X84885693Y-134571847D01*
X84885693Y-134571847D02*
X84838074Y-134476609D01*
X84838074Y-134476609D02*
X84790455Y-134428990D01*
X84790455Y-134428990D02*
X84695217Y-134381371D01*
X84695217Y-134381371D02*
X84504741Y-134381371D01*
X84504741Y-134381371D02*
X84409503Y-134428990D01*
X84409503Y-134428990D02*
X84361884Y-134476609D01*
X84361884Y-134476609D02*
X84314265Y-134571847D01*
X83314265Y-63594704D02*
X83790455Y-63594704D01*
X83219027Y-63880419D02*
X83552360Y-62880419D01*
X83552360Y-62880419D02*
X83885693Y-63880419D01*
X84742836Y-63880419D02*
X84171408Y-63880419D01*
X84457122Y-63880419D02*
X84457122Y-62880419D01*
X84457122Y-62880419D02*
X84361884Y-63023276D01*
X84361884Y-63023276D02*
X84266646Y-63118514D01*
X84266646Y-63118514D02*
X84171408Y-63166133D01*
X85695217Y-63880419D02*
X85123789Y-63880419D01*
X85409503Y-63880419D02*
X85409503Y-62880419D01*
X85409503Y-62880419D02*
X85314265Y-63023276D01*
X85314265Y-63023276D02*
X85219027Y-63118514D01*
X85219027Y-63118514D02*
X85123789Y-63166133D01*
D11*
%TO.C,REF\u002A\u002A*%
X179130000Y-62170000D02*
X179130000Y-63500000D01*
X177800000Y-62170000D02*
X179130000Y-62170000D01*
X176530000Y-62170000D02*
X87570000Y-62170000D01*
X176530000Y-62170000D02*
X176530000Y-64830000D01*
X87570000Y-62170000D02*
X87570000Y-64830000D01*
X176530000Y-64830000D02*
X87570000Y-64830000D01*
X179130000Y-54550000D02*
X179130000Y-55880000D01*
X177800000Y-54550000D02*
X179130000Y-54550000D01*
X176530000Y-54550000D02*
X87570000Y-54550000D01*
X176530000Y-54550000D02*
X176530000Y-57210000D01*
X87570000Y-54550000D02*
X87570000Y-57210000D01*
X176530000Y-57210000D02*
X87570000Y-57210000D01*
X120590000Y-57090000D02*
X121920000Y-57090000D01*
X120590000Y-58420000D02*
X120590000Y-57090000D01*
X120590000Y-59690000D02*
X120590000Y-59750000D01*
X120590000Y-59690000D02*
X123250000Y-59690000D01*
X120590000Y-59750000D02*
X123250000Y-59750000D01*
X123250000Y-59690000D02*
X123250000Y-59750000D01*
X179130000Y-67250000D02*
X179130000Y-68580000D01*
X177800000Y-67250000D02*
X179130000Y-67250000D01*
X176530000Y-67250000D02*
X87570000Y-67250000D01*
X176530000Y-67250000D02*
X176530000Y-69910000D01*
X87570000Y-67250000D02*
X87570000Y-69910000D01*
X176530000Y-69910000D02*
X87570000Y-69910000D01*
X179130000Y-59630000D02*
X179130000Y-60960000D01*
X177800000Y-59630000D02*
X179130000Y-59630000D01*
X176530000Y-59630000D02*
X87570000Y-59630000D01*
X176530000Y-59630000D02*
X176530000Y-62290000D01*
X87570000Y-59630000D02*
X87570000Y-62290000D01*
X176530000Y-62290000D02*
X87570000Y-62290000D01*
X120590000Y-125670000D02*
X121920000Y-125670000D01*
X120590000Y-127000000D02*
X120590000Y-125670000D01*
X120590000Y-128270000D02*
X120590000Y-128330000D01*
X120590000Y-128270000D02*
X123250000Y-128270000D01*
X120590000Y-128330000D02*
X123250000Y-128330000D01*
X123250000Y-128270000D02*
X123250000Y-128330000D01*
X179130000Y-130750000D02*
X179130000Y-132080000D01*
X177800000Y-130750000D02*
X179130000Y-130750000D01*
X176530000Y-130750000D02*
X87570000Y-130750000D01*
X176530000Y-130750000D02*
X176530000Y-133410000D01*
X87570000Y-130750000D02*
X87570000Y-133410000D01*
X176530000Y-133410000D02*
X87570000Y-133410000D01*
X120844000Y-100270000D02*
X122174000Y-100270000D01*
X120844000Y-101600000D02*
X120844000Y-100270000D01*
X120844000Y-102870000D02*
X120844000Y-102930000D01*
X120844000Y-102870000D02*
X123504000Y-102870000D01*
X120844000Y-102930000D02*
X123504000Y-102930000D01*
X123504000Y-102870000D02*
X123504000Y-102930000D01*
X120844000Y-74870000D02*
X122174000Y-74870000D01*
X120844000Y-76200000D02*
X120844000Y-74870000D01*
X120844000Y-77470000D02*
X120844000Y-77530000D01*
X120844000Y-77470000D02*
X123504000Y-77470000D01*
X120844000Y-77530000D02*
X123504000Y-77530000D01*
X123504000Y-77470000D02*
X123504000Y-77530000D01*
X179130000Y-118050000D02*
X179130000Y-119380000D01*
X177800000Y-118050000D02*
X179130000Y-118050000D01*
X176530000Y-118050000D02*
X87570000Y-118050000D01*
X176530000Y-118050000D02*
X176530000Y-120710000D01*
X87570000Y-118050000D02*
X87570000Y-120710000D01*
X176530000Y-120710000D02*
X87570000Y-120710000D01*
X179130000Y-120590000D02*
X179130000Y-121920000D01*
X177800000Y-120590000D02*
X179130000Y-120590000D01*
X176530000Y-120590000D02*
X87570000Y-120590000D01*
X176530000Y-120590000D02*
X176530000Y-123250000D01*
X87570000Y-120590000D02*
X87570000Y-123250000D01*
X176530000Y-123250000D02*
X87570000Y-123250000D01*
X179130000Y-138370000D02*
X179130000Y-139700000D01*
X177800000Y-138370000D02*
X179130000Y-138370000D01*
X176530000Y-138370000D02*
X87570000Y-138370000D01*
X176530000Y-138370000D02*
X176530000Y-141030000D01*
X87570000Y-138370000D02*
X87570000Y-141030000D01*
X176530000Y-141030000D02*
X87570000Y-141030000D01*
X102810000Y-151324000D02*
X104140000Y-151324000D01*
X102810000Y-152654000D02*
X102810000Y-151324000D01*
X102810000Y-153924000D02*
X102810000Y-153984000D01*
X102810000Y-153924000D02*
X105470000Y-153924000D01*
X102810000Y-153984000D02*
X105470000Y-153984000D01*
X105470000Y-153924000D02*
X105470000Y-153984000D01*
X179130000Y-140910000D02*
X179130000Y-142240000D01*
X177800000Y-140910000D02*
X179130000Y-140910000D01*
X176530000Y-140910000D02*
X87570000Y-140910000D01*
X176530000Y-140910000D02*
X176530000Y-143570000D01*
X87570000Y-140910000D02*
X87570000Y-143570000D01*
X176530000Y-143570000D02*
X87570000Y-143570000D01*
X179130000Y-110430000D02*
X179130000Y-111760000D01*
X177800000Y-110430000D02*
X179130000Y-110430000D01*
X176530000Y-110430000D02*
X87570000Y-110430000D01*
X176530000Y-110430000D02*
X176530000Y-113090000D01*
X87570000Y-110430000D02*
X87570000Y-113090000D01*
X176530000Y-113090000D02*
X87570000Y-113090000D01*
X179130000Y-95190000D02*
X179130000Y-96520000D01*
X177800000Y-95190000D02*
X179130000Y-95190000D01*
X176530000Y-95190000D02*
X87570000Y-95190000D01*
X176530000Y-95190000D02*
X176530000Y-97850000D01*
X87570000Y-95190000D02*
X87570000Y-97850000D01*
X176530000Y-97850000D02*
X87570000Y-97850000D01*
X179130000Y-115510000D02*
X179130000Y-116840000D01*
X177800000Y-115510000D02*
X179130000Y-115510000D01*
X176530000Y-115510000D02*
X87570000Y-115510000D01*
X176530000Y-115510000D02*
X176530000Y-118170000D01*
X87570000Y-115510000D02*
X87570000Y-118170000D01*
X176530000Y-118170000D02*
X87570000Y-118170000D01*
X179130000Y-52010000D02*
X179130000Y-53340000D01*
X177800000Y-52010000D02*
X179130000Y-52010000D01*
X176530000Y-52010000D02*
X87570000Y-52010000D01*
X176530000Y-52010000D02*
X176530000Y-54670000D01*
X87570000Y-52010000D02*
X87570000Y-54670000D01*
X176530000Y-54670000D02*
X87570000Y-54670000D01*
X141164000Y-125670000D02*
X142494000Y-125670000D01*
X141164000Y-127000000D02*
X141164000Y-125670000D01*
X141164000Y-128270000D02*
X141164000Y-128330000D01*
X141164000Y-128270000D02*
X143824000Y-128270000D01*
X141164000Y-128330000D02*
X143824000Y-128330000D01*
X143824000Y-128270000D02*
X143824000Y-128330000D01*
X179130000Y-112970000D02*
X179130000Y-114300000D01*
X177800000Y-112970000D02*
X179130000Y-112970000D01*
X176530000Y-112970000D02*
X87570000Y-112970000D01*
X176530000Y-112970000D02*
X176530000Y-115630000D01*
X87570000Y-112970000D02*
X87570000Y-115630000D01*
X176530000Y-115630000D02*
X87570000Y-115630000D01*
X161230000Y-100270000D02*
X162560000Y-100270000D01*
X161230000Y-101600000D02*
X161230000Y-100270000D01*
X161230000Y-102870000D02*
X161230000Y-102930000D01*
X161230000Y-102870000D02*
X163890000Y-102870000D01*
X161230000Y-102930000D02*
X163890000Y-102930000D01*
X163890000Y-102870000D02*
X163890000Y-102930000D01*
X83615000Y-98070775D02*
X83615000Y-97570775D01*
X83365000Y-97820775D02*
X83865000Y-97820775D01*
X82510000Y-95266000D02*
X84050000Y-95266000D01*
X86130000Y-95266000D02*
X87670000Y-95266000D01*
X82510000Y-95226000D02*
X84050000Y-95226000D01*
X86130000Y-95226000D02*
X87670000Y-95226000D01*
X82511000Y-95186000D02*
X84050000Y-95186000D01*
X86130000Y-95186000D02*
X87669000Y-95186000D01*
X82512000Y-95146000D02*
X84050000Y-95146000D01*
X86130000Y-95146000D02*
X87668000Y-95146000D01*
X82514000Y-95106000D02*
X84050000Y-95106000D01*
X86130000Y-95106000D02*
X87666000Y-95106000D01*
X82517000Y-95066000D02*
X84050000Y-95066000D01*
X86130000Y-95066000D02*
X87663000Y-95066000D01*
X82521000Y-95026000D02*
X84050000Y-95026000D01*
X86130000Y-95026000D02*
X87659000Y-95026000D01*
X82525000Y-94986000D02*
X84050000Y-94986000D01*
X86130000Y-94986000D02*
X87655000Y-94986000D01*
X82529000Y-94946000D02*
X84050000Y-94946000D01*
X86130000Y-94946000D02*
X87651000Y-94946000D01*
X82534000Y-94906000D02*
X84050000Y-94906000D01*
X86130000Y-94906000D02*
X87646000Y-94906000D01*
X82540000Y-94866000D02*
X84050000Y-94866000D01*
X86130000Y-94866000D02*
X87640000Y-94866000D01*
X82547000Y-94826000D02*
X84050000Y-94826000D01*
X86130000Y-94826000D02*
X87633000Y-94826000D01*
X82554000Y-94786000D02*
X84050000Y-94786000D01*
X86130000Y-94786000D02*
X87626000Y-94786000D01*
X82562000Y-94746000D02*
X84050000Y-94746000D01*
X86130000Y-94746000D02*
X87618000Y-94746000D01*
X82570000Y-94706000D02*
X84050000Y-94706000D01*
X86130000Y-94706000D02*
X87610000Y-94706000D01*
X82579000Y-94666000D02*
X84050000Y-94666000D01*
X86130000Y-94666000D02*
X87601000Y-94666000D01*
X82589000Y-94626000D02*
X84050000Y-94626000D01*
X86130000Y-94626000D02*
X87591000Y-94626000D01*
X82599000Y-94586000D02*
X84050000Y-94586000D01*
X86130000Y-94586000D02*
X87581000Y-94586000D01*
X82610000Y-94545000D02*
X84050000Y-94545000D01*
X86130000Y-94545000D02*
X87570000Y-94545000D01*
X82622000Y-94505000D02*
X84050000Y-94505000D01*
X86130000Y-94505000D02*
X87558000Y-94505000D01*
X82635000Y-94465000D02*
X84050000Y-94465000D01*
X86130000Y-94465000D02*
X87545000Y-94465000D01*
X82648000Y-94425000D02*
X84050000Y-94425000D01*
X86130000Y-94425000D02*
X87532000Y-94425000D01*
X82662000Y-94385000D02*
X84050000Y-94385000D01*
X86130000Y-94385000D02*
X87518000Y-94385000D01*
X82676000Y-94345000D02*
X84050000Y-94345000D01*
X86130000Y-94345000D02*
X87504000Y-94345000D01*
X82692000Y-94305000D02*
X84050000Y-94305000D01*
X86130000Y-94305000D02*
X87488000Y-94305000D01*
X82708000Y-94265000D02*
X84050000Y-94265000D01*
X86130000Y-94265000D02*
X87472000Y-94265000D01*
X82725000Y-94225000D02*
X84050000Y-94225000D01*
X86130000Y-94225000D02*
X87455000Y-94225000D01*
X82742000Y-94185000D02*
X84050000Y-94185000D01*
X86130000Y-94185000D02*
X87438000Y-94185000D01*
X82761000Y-94145000D02*
X84050000Y-94145000D01*
X86130000Y-94145000D02*
X87419000Y-94145000D01*
X82780000Y-94105000D02*
X84050000Y-94105000D01*
X86130000Y-94105000D02*
X87400000Y-94105000D01*
X82800000Y-94065000D02*
X84050000Y-94065000D01*
X86130000Y-94065000D02*
X87380000Y-94065000D01*
X82822000Y-94025000D02*
X84050000Y-94025000D01*
X86130000Y-94025000D02*
X87358000Y-94025000D01*
X82843000Y-93985000D02*
X84050000Y-93985000D01*
X86130000Y-93985000D02*
X87337000Y-93985000D01*
X82866000Y-93945000D02*
X84050000Y-93945000D01*
X86130000Y-93945000D02*
X87314000Y-93945000D01*
X82890000Y-93905000D02*
X84050000Y-93905000D01*
X86130000Y-93905000D02*
X87290000Y-93905000D01*
X82915000Y-93865000D02*
X84050000Y-93865000D01*
X86130000Y-93865000D02*
X87265000Y-93865000D01*
X82941000Y-93825000D02*
X84050000Y-93825000D01*
X86130000Y-93825000D02*
X87239000Y-93825000D01*
X82968000Y-93785000D02*
X84050000Y-93785000D01*
X86130000Y-93785000D02*
X87212000Y-93785000D01*
X82995000Y-93745000D02*
X84050000Y-93745000D01*
X86130000Y-93745000D02*
X87185000Y-93745000D01*
X83025000Y-93705000D02*
X84050000Y-93705000D01*
X86130000Y-93705000D02*
X87155000Y-93705000D01*
X83055000Y-93665000D02*
X84050000Y-93665000D01*
X86130000Y-93665000D02*
X87125000Y-93665000D01*
X83086000Y-93625000D02*
X84050000Y-93625000D01*
X86130000Y-93625000D02*
X87094000Y-93625000D01*
X83119000Y-93585000D02*
X84050000Y-93585000D01*
X86130000Y-93585000D02*
X87061000Y-93585000D01*
X83153000Y-93545000D02*
X84050000Y-93545000D01*
X86130000Y-93545000D02*
X87027000Y-93545000D01*
X83189000Y-93505000D02*
X84050000Y-93505000D01*
X86130000Y-93505000D02*
X86991000Y-93505000D01*
X83226000Y-93465000D02*
X84050000Y-93465000D01*
X86130000Y-93465000D02*
X86954000Y-93465000D01*
X83264000Y-93425000D02*
X84050000Y-93425000D01*
X86130000Y-93425000D02*
X86916000Y-93425000D01*
X83305000Y-93385000D02*
X84050000Y-93385000D01*
X86130000Y-93385000D02*
X86875000Y-93385000D01*
X83347000Y-93345000D02*
X84050000Y-93345000D01*
X86130000Y-93345000D02*
X86833000Y-93345000D01*
X83391000Y-93305000D02*
X84050000Y-93305000D01*
X86130000Y-93305000D02*
X86789000Y-93305000D01*
X83437000Y-93265000D02*
X84050000Y-93265000D01*
X86130000Y-93265000D02*
X86743000Y-93265000D01*
X83485000Y-93225000D02*
X86695000Y-93225000D01*
X83536000Y-93185000D02*
X86644000Y-93185000D01*
X83590000Y-93145000D02*
X86590000Y-93145000D01*
X83647000Y-93105000D02*
X86533000Y-93105000D01*
X83707000Y-93065000D02*
X86473000Y-93065000D01*
X83771000Y-93025000D02*
X86409000Y-93025000D01*
X83839000Y-92985000D02*
X86341000Y-92985000D01*
X83912000Y-92945000D02*
X86268000Y-92945000D01*
X83992000Y-92905000D02*
X86188000Y-92905000D01*
X84079000Y-92865000D02*
X86101000Y-92865000D01*
X84175000Y-92825000D02*
X86005000Y-92825000D01*
X84285000Y-92785000D02*
X85895000Y-92785000D01*
X84413000Y-92745000D02*
X85767000Y-92745000D01*
X84572000Y-92705000D02*
X85608000Y-92705000D01*
X84806000Y-92665000D02*
X85374000Y-92665000D01*
X87710000Y-95266000D02*
G75*
G03*
X82470000Y-95266000I-2620000J0D01*
G01*
X82470000Y-95266000D02*
G75*
G03*
X87710000Y-95266000I2620000J0D01*
G01*
X179130000Y-145990000D02*
X179130000Y-147320000D01*
X177800000Y-145990000D02*
X179130000Y-145990000D01*
X176530000Y-145990000D02*
X87570000Y-145990000D01*
X176530000Y-145990000D02*
X176530000Y-148650000D01*
X87570000Y-145990000D02*
X87570000Y-148650000D01*
X176530000Y-148650000D02*
X87570000Y-148650000D01*
X179130000Y-77410000D02*
X179130000Y-78740000D01*
X177800000Y-77410000D02*
X179130000Y-77410000D01*
X176530000Y-77410000D02*
X87570000Y-77410000D01*
X176530000Y-77410000D02*
X176530000Y-80070000D01*
X87570000Y-77410000D02*
X87570000Y-80070000D01*
X176530000Y-80070000D02*
X87570000Y-80070000D01*
X161230000Y-74870000D02*
X162560000Y-74870000D01*
X161230000Y-76200000D02*
X161230000Y-74870000D01*
X161230000Y-77470000D02*
X161230000Y-77530000D01*
X161230000Y-77470000D02*
X163890000Y-77470000D01*
X161230000Y-77530000D02*
X163890000Y-77530000D01*
X163890000Y-77470000D02*
X163890000Y-77530000D01*
X141164000Y-151070000D02*
X142494000Y-151070000D01*
X141164000Y-152400000D02*
X141164000Y-151070000D01*
X141164000Y-153670000D02*
X141164000Y-153730000D01*
X141164000Y-153670000D02*
X143824000Y-153670000D01*
X141164000Y-153730000D02*
X143824000Y-153730000D01*
X143824000Y-153670000D02*
X143824000Y-153730000D01*
X120590000Y-151070000D02*
X121920000Y-151070000D01*
X120590000Y-152400000D02*
X120590000Y-151070000D01*
X120590000Y-153670000D02*
X120590000Y-153730000D01*
X120590000Y-153670000D02*
X123250000Y-153670000D01*
X120590000Y-153730000D02*
X123250000Y-153730000D01*
X123250000Y-153670000D02*
X123250000Y-153730000D01*
X179130000Y-148530000D02*
X179130000Y-149860000D01*
X177800000Y-148530000D02*
X179130000Y-148530000D01*
X176530000Y-148530000D02*
X87570000Y-148530000D01*
X176530000Y-148530000D02*
X176530000Y-151190000D01*
X87570000Y-148530000D02*
X87570000Y-151190000D01*
X176530000Y-151190000D02*
X87570000Y-151190000D01*
X179130000Y-143450000D02*
X179130000Y-144780000D01*
X177800000Y-143450000D02*
X179130000Y-143450000D01*
X176530000Y-143450000D02*
X87570000Y-143450000D01*
X176530000Y-143450000D02*
X176530000Y-146110000D01*
X87570000Y-143450000D02*
X87570000Y-146110000D01*
X176530000Y-146110000D02*
X87570000Y-146110000D01*
X102810000Y-57090000D02*
X104140000Y-57090000D01*
X102810000Y-58420000D02*
X102810000Y-57090000D01*
X102810000Y-59690000D02*
X102810000Y-59750000D01*
X102810000Y-59690000D02*
X105470000Y-59690000D01*
X102810000Y-59750000D02*
X105470000Y-59750000D01*
X105470000Y-59690000D02*
X105470000Y-59750000D01*
X179130000Y-135830000D02*
X179130000Y-137160000D01*
X177800000Y-135830000D02*
X179130000Y-135830000D01*
X176530000Y-135830000D02*
X87570000Y-135830000D01*
X176530000Y-135830000D02*
X176530000Y-138490000D01*
X87570000Y-135830000D02*
X87570000Y-138490000D01*
X176530000Y-138490000D02*
X87570000Y-138490000D01*
X140910000Y-100270000D02*
X142240000Y-100270000D01*
X140910000Y-101600000D02*
X140910000Y-100270000D01*
X140910000Y-102870000D02*
X140910000Y-102930000D01*
X140910000Y-102870000D02*
X143570000Y-102870000D01*
X140910000Y-102930000D02*
X143570000Y-102930000D01*
X143570000Y-102870000D02*
X143570000Y-102930000D01*
X179130000Y-79950000D02*
X179130000Y-81280000D01*
X177800000Y-79950000D02*
X179130000Y-79950000D01*
X176530000Y-79950000D02*
X87570000Y-79950000D01*
X176530000Y-79950000D02*
X176530000Y-82610000D01*
X87570000Y-79950000D02*
X87570000Y-82610000D01*
X176530000Y-82610000D02*
X87570000Y-82610000D01*
X179130000Y-123130000D02*
X179130000Y-124460000D01*
X177800000Y-123130000D02*
X179130000Y-123130000D01*
X176530000Y-123130000D02*
X87570000Y-123130000D01*
X176530000Y-123130000D02*
X176530000Y-125790000D01*
X87570000Y-123130000D02*
X87570000Y-125790000D01*
X176530000Y-125790000D02*
X87570000Y-125790000D01*
X140910000Y-57090000D02*
X142240000Y-57090000D01*
X140910000Y-58420000D02*
X140910000Y-57090000D01*
X140910000Y-59690000D02*
X140910000Y-59750000D01*
X140910000Y-59690000D02*
X143570000Y-59690000D01*
X140910000Y-59750000D02*
X143570000Y-59750000D01*
X143570000Y-59690000D02*
X143570000Y-59750000D01*
X77410000Y-52010000D02*
X78740000Y-52010000D01*
X77410000Y-53340000D02*
X77410000Y-52010000D01*
X77410000Y-54610000D02*
X77410000Y-153730000D01*
X77410000Y-54610000D02*
X80010000Y-54610000D01*
X77410000Y-153730000D02*
X82610000Y-153730000D01*
X80010000Y-52010000D02*
X82610000Y-52010000D01*
X80010000Y-54610000D02*
X80010000Y-52010000D01*
X82610000Y-52010000D02*
X82610000Y-153730000D01*
X102810000Y-100270000D02*
X104140000Y-100270000D01*
X102810000Y-101600000D02*
X102810000Y-100270000D01*
X102810000Y-102870000D02*
X102810000Y-102930000D01*
X102810000Y-102870000D02*
X105470000Y-102870000D01*
X102810000Y-102930000D02*
X105470000Y-102930000D01*
X105470000Y-102870000D02*
X105470000Y-102930000D01*
X179130000Y-102810000D02*
X179130000Y-104140000D01*
X177800000Y-102810000D02*
X179130000Y-102810000D01*
X176530000Y-102810000D02*
X87570000Y-102810000D01*
X176530000Y-102810000D02*
X176530000Y-105470000D01*
X87570000Y-102810000D02*
X87570000Y-105470000D01*
X176530000Y-105470000D02*
X87570000Y-105470000D01*
X179130000Y-128210000D02*
X179130000Y-129540000D01*
X177800000Y-128210000D02*
X179130000Y-128210000D01*
X176530000Y-128210000D02*
X87570000Y-128210000D01*
X176530000Y-128210000D02*
X176530000Y-130870000D01*
X87570000Y-128210000D02*
X87570000Y-130870000D01*
X176530000Y-130870000D02*
X87570000Y-130870000D01*
X179130000Y-69790000D02*
X179130000Y-71120000D01*
X177800000Y-69790000D02*
X179130000Y-69790000D01*
X176530000Y-69790000D02*
X87570000Y-69790000D01*
X176530000Y-69790000D02*
X176530000Y-72450000D01*
X87570000Y-69790000D02*
X87570000Y-72450000D01*
X176530000Y-72450000D02*
X87570000Y-72450000D01*
X102810000Y-74870000D02*
X104140000Y-74870000D01*
X102810000Y-76200000D02*
X102810000Y-74870000D01*
X102810000Y-77470000D02*
X102810000Y-77530000D01*
X102810000Y-77470000D02*
X105470000Y-77470000D01*
X102810000Y-77530000D02*
X105470000Y-77530000D01*
X105470000Y-77470000D02*
X105470000Y-77530000D01*
X161230000Y-57090000D02*
X162560000Y-57090000D01*
X161230000Y-58420000D02*
X161230000Y-57090000D01*
X161230000Y-59690000D02*
X161230000Y-59750000D01*
X161230000Y-59690000D02*
X163890000Y-59690000D01*
X161230000Y-59750000D02*
X163890000Y-59750000D01*
X163890000Y-59690000D02*
X163890000Y-59750000D01*
X161230000Y-125670000D02*
X162560000Y-125670000D01*
X161230000Y-127000000D02*
X161230000Y-125670000D01*
X161230000Y-128270000D02*
X161230000Y-128330000D01*
X161230000Y-128270000D02*
X163890000Y-128270000D01*
X161230000Y-128330000D02*
X163890000Y-128330000D01*
X163890000Y-128270000D02*
X163890000Y-128330000D01*
X179130000Y-85030000D02*
X179130000Y-86360000D01*
X177800000Y-85030000D02*
X179130000Y-85030000D01*
X176530000Y-85030000D02*
X87570000Y-85030000D01*
X176530000Y-85030000D02*
X176530000Y-87690000D01*
X87570000Y-85030000D02*
X87570000Y-87690000D01*
X176530000Y-87690000D02*
X87570000Y-87690000D01*
X179130000Y-72330000D02*
X179130000Y-73660000D01*
X177800000Y-72330000D02*
X179130000Y-72330000D01*
X176530000Y-72330000D02*
X87570000Y-72330000D01*
X176530000Y-72330000D02*
X176530000Y-74990000D01*
X87570000Y-72330000D02*
X87570000Y-74990000D01*
X176530000Y-74990000D02*
X87570000Y-74990000D01*
X140910000Y-74870000D02*
X142240000Y-74870000D01*
X140910000Y-76200000D02*
X140910000Y-74870000D01*
X140910000Y-77470000D02*
X140910000Y-77530000D01*
X140910000Y-77470000D02*
X143570000Y-77470000D01*
X140910000Y-77530000D02*
X143570000Y-77530000D01*
X143570000Y-77470000D02*
X143570000Y-77530000D01*
X102810000Y-125670000D02*
X104140000Y-125670000D01*
X102810000Y-127000000D02*
X102810000Y-125670000D01*
X102810000Y-128270000D02*
X102810000Y-128330000D01*
X102810000Y-128270000D02*
X105470000Y-128270000D01*
X102810000Y-128330000D02*
X105470000Y-128330000D01*
X105470000Y-128270000D02*
X105470000Y-128330000D01*
X179130000Y-105350000D02*
X179130000Y-106680000D01*
X177800000Y-105350000D02*
X179130000Y-105350000D01*
X176530000Y-105350000D02*
X87570000Y-105350000D01*
X176530000Y-105350000D02*
X176530000Y-108010000D01*
X87570000Y-105350000D02*
X87570000Y-108010000D01*
X176530000Y-108010000D02*
X87570000Y-108010000D01*
X179130000Y-90110000D02*
X179130000Y-91440000D01*
X177800000Y-90110000D02*
X179130000Y-90110000D01*
X176530000Y-90110000D02*
X87570000Y-90110000D01*
X176530000Y-90110000D02*
X176530000Y-92770000D01*
X87570000Y-90110000D02*
X87570000Y-92770000D01*
X176530000Y-92770000D02*
X87570000Y-92770000D01*
X179130000Y-92650000D02*
X179130000Y-93980000D01*
X177800000Y-92650000D02*
X179130000Y-92650000D01*
X176530000Y-92650000D02*
X87570000Y-92650000D01*
X176530000Y-92650000D02*
X176530000Y-95310000D01*
X87570000Y-92650000D02*
X87570000Y-95310000D01*
X176530000Y-95310000D02*
X87570000Y-95310000D01*
X160976000Y-151070000D02*
X162306000Y-151070000D01*
X160976000Y-152400000D02*
X160976000Y-151070000D01*
X160976000Y-153670000D02*
X160976000Y-153730000D01*
X160976000Y-153670000D02*
X163636000Y-153670000D01*
X160976000Y-153730000D02*
X163636000Y-153730000D01*
X163636000Y-153670000D02*
X163636000Y-153730000D01*
X179130000Y-87570000D02*
X179130000Y-88900000D01*
X177800000Y-87570000D02*
X179130000Y-87570000D01*
X176530000Y-87570000D02*
X87570000Y-87570000D01*
X176530000Y-87570000D02*
X176530000Y-90230000D01*
X87570000Y-87570000D02*
X87570000Y-90230000D01*
X176530000Y-90230000D02*
X87570000Y-90230000D01*
X179130000Y-97730000D02*
X179130000Y-99060000D01*
X177800000Y-97730000D02*
X179130000Y-97730000D01*
X176530000Y-97730000D02*
X87570000Y-97730000D01*
X176530000Y-97730000D02*
X176530000Y-100390000D01*
X87570000Y-97730000D02*
X87570000Y-100390000D01*
X176530000Y-100390000D02*
X87570000Y-100390000D01*
X179130000Y-64710000D02*
X179130000Y-66040000D01*
X177800000Y-64710000D02*
X179130000Y-64710000D01*
X176530000Y-64710000D02*
X87570000Y-64710000D01*
X176530000Y-64710000D02*
X176530000Y-67370000D01*
X87570000Y-64710000D02*
X87570000Y-67370000D01*
X176530000Y-67370000D02*
X87570000Y-67370000D01*
%TD*%
M02*
